<svg version="1.1" xmlns="http://www.w3.org/2000/svg" xmlns:xlink="http://www.w3.org/1999/xlink" width="1387.130859375" height="780"><defs/><g><g transform="translate(-22,-54) scale(1,1)"><path fill="none" stroke="#000000" d="M 232 64 L 1272 64 L 1272 824 L 232 824 L 232 64" stroke-miterlimit="10"/></g><g transform="translate(-22,-54) scale(1,1)"><path fill="#ffffff" stroke="none" d="M 232 64 L 232 86 L 382.41162109375 86 L 393.41162109375 75 L 393.41162109375 64 L 232 64"/></g><g transform="translate(-22,-54) scale(1,1)"><path fill="none" stroke="#000000" d="M 232 64 L 232 86 L 382.41162109375 86 L 393.41162109375 75 L 393.41162109375 64 L 232 64 L 232 64" stroke-miterlimit="10"/></g><g transform="translate(-22,-54) scale(1,1)"><g><path fill="none" stroke="none"/><text fill="#000000" stroke="none" font-family="Arial" font-size="13px" font-style="normal" font-weight="normal" text-decoration="none" x="295.03173828125" y="81.5">Módulo Zonas</text></g></g><g transform="translate(-22,-54) scale(1,1)"><g><path fill="none" stroke="none"/><text fill="#000000" stroke="none" font-family="Arial" font-size="13px" font-style="normal" font-weight="bold" text-decoration="none" x="237" y="81.5">use case</text></g></g><g transform="translate(-22,-54) scale(1,1)"><path fill="#ffffff" stroke="none" d="M 96.24162571022727 201.68 C 96.24162571022727 196.886167936 100.12746803517273 193 104.9208984375 193 C 109.71432883982727 193 113.60017116477273 196.886167936 113.60017116477273 201.68 C 113.60017116477273 206.47383206400002 109.71432883982727 210.36 104.9208984375 210.36 C 100.12746803517273 210.36 96.24162571022727 206.47383206400002 96.24162571022727 201.68 Z"/></g><g transform="translate(-22,-54) scale(1,1)"><path fill="none" stroke="#000000" d="M 96.24162571022727 201.68 C 96.24162571022727 196.886167936 100.12746803517273 193 104.9208984375 193 C 109.71432883982727 193 113.60017116477273 196.886167936 113.60017116477273 201.68 C 113.60017116477273 206.47383206400002 109.71432883982727 210.36 104.9208984375 210.36 C 100.12746803517273 210.36 96.24162571022727 206.47383206400002 96.24162571022727 201.68 Z" stroke-miterlimit="10"/></g><g transform="translate(-22,-54) scale(1,1)"><path fill="none" stroke="#000000" d="M 104.9208984375 210.36 L 104.9208984375 227.64" stroke-miterlimit="10"/></g><g transform="translate(-22,-54) scale(1,1)"><path fill="none" stroke="#000000" d="M 95.73108025568182 216.84 L 114.11071661931818 216.84" stroke-miterlimit="10"/></g><g transform="translate(-22,-54) scale(1,1)"><path fill="none" stroke="#000000" d="M 104.9208984375 227.64 L 92.15726207386363 245" stroke-miterlimit="10"/></g><g transform="translate(-22,-54) scale(1,1)"><path fill="none" stroke="#000000" d="M 104.9208984375 227.64 L 117.68453480113637 245" stroke-miterlimit="10"/></g><g transform="translate(-22,-54) scale(1,1)"><g><path fill="none" stroke="none"/><text fill="#000000" stroke="none" font-family="Arial" font-size="13px" font-style="normal" font-weight="bold" text-decoration="none" x="64.82275390625" y="265.5">Administrador</text></g></g><g transform="translate(-22,-54) scale(1,1)"><path fill="#ffffff" stroke="none" d="M 98.61296360085227 569.6800000000001 C 98.61296360085227 564.8861679360001 102.49880592579773 561 107.292236328125 561 C 112.08566673045227 561 115.97150905539773 564.8861679360001 115.97150905539773 569.6800000000001 C 115.97150905539773 574.473832064 112.08566673045227 578.36 107.292236328125 578.36 C 102.49880592579773 578.36 98.61296360085227 574.473832064 98.61296360085227 569.6800000000001 Z"/></g><g transform="translate(-22,-54) scale(1,1)"><path fill="none" stroke="#000000" d="M 98.61296360085227 569.6800000000001 C 98.61296360085227 564.8861679360001 102.49880592579773 561 107.292236328125 561 C 112.08566673045227 561 115.97150905539773 564.8861679360001 115.97150905539773 569.6800000000001 C 115.97150905539773 574.473832064 112.08566673045227 578.36 107.292236328125 578.36 C 102.49880592579773 578.36 98.61296360085227 574.473832064 98.61296360085227 569.6800000000001 Z" stroke-miterlimit="10"/></g><g transform="translate(-22,-54) scale(1,1)"><path fill="none" stroke="#000000" d="M 107.292236328125 578.36 L 107.292236328125 595.64" stroke-miterlimit="10"/></g><g transform="translate(-22,-54) scale(1,1)"><path fill="none" stroke="#000000" d="M 98.10241814630682 584.84 L 116.48205450994318 584.84" stroke-miterlimit="10"/></g><g transform="translate(-22,-54) scale(1,1)"><path fill="none" stroke="#000000" d="M 107.292236328125 595.64 L 94.52859996448863 613" stroke-miterlimit="10"/></g><g transform="translate(-22,-54) scale(1,1)"><path fill="none" stroke="#000000" d="M 107.292236328125 595.64 L 120.05587269176137 613" stroke-miterlimit="10"/></g><g transform="translate(-22,-54) scale(1,1)"><g><path fill="none" stroke="none"/><text fill="#000000" stroke="none" font-family="Arial" font-size="13px" font-style="normal" font-weight="bold" text-decoration="none" x="42.628662109375" y="633.5">Administrador Porteria</text></g></g><g transform="translate(-22,-54) scale(1,1)"><path fill="#ffffff" stroke="none" d="M 1354.8861569602273 249.68 C 1354.8861569602273 244.886167936 1358.7719992851728 241 1363.5654296875 241 C 1368.3588600898272 241 1372.2447024147727 244.886167936 1372.2447024147727 249.68 C 1372.2447024147727 254.47383206400002 1368.3588600898272 258.36 1363.5654296875 258.36 C 1358.7719992851728 258.36 1354.8861569602273 254.47383206400002 1354.8861569602273 249.68 Z"/></g><g transform="translate(-22,-54) scale(1,1)"><path fill="none" stroke="#000000" d="M 1354.8861569602273 249.68 C 1354.8861569602273 244.886167936 1358.7719992851728 241 1363.5654296875 241 C 1368.3588600898272 241 1372.2447024147727 244.886167936 1372.2447024147727 249.68 C 1372.2447024147727 254.47383206400002 1368.3588600898272 258.36 1363.5654296875 258.36 C 1358.7719992851728 258.36 1354.8861569602273 254.47383206400002 1354.8861569602273 249.68 Z" stroke-miterlimit="10"/></g><g transform="translate(-22,-54) scale(1,1)"><path fill="none" stroke="#000000" d="M 1363.5654296875 258.36 L 1363.5654296875 275.64" stroke-miterlimit="10"/></g><g transform="translate(-22,-54) scale(1,1)"><path fill="none" stroke="#000000" d="M 1354.3756115056817 264.84 L 1372.7552478693183 264.84" stroke-miterlimit="10"/></g><g transform="translate(-22,-54) scale(1,1)"><path fill="none" stroke="#000000" d="M 1363.5654296875 275.64 L 1350.8017933238636 293" stroke-miterlimit="10"/></g><g transform="translate(-22,-54) scale(1,1)"><path fill="none" stroke="#000000" d="M 1363.5654296875 275.64 L 1376.3290660511364 293" stroke-miterlimit="10"/></g><g transform="translate(-22,-54) scale(1,1)"><g><path fill="none" stroke="none"/><text fill="#000000" stroke="none" font-family="Arial" font-size="13px" font-style="normal" font-weight="bold" text-decoration="none" x="1334.29638671875" y="313.5">Residente</text></g></g><g transform="translate(-22,-54) scale(1,1)"><path fill="#C0C0C0" stroke="none" d="M 639 134.5 C 639 117.1030288 698.5461216 103 772 103 C 845.4538784 103 905 117.1030288 905 134.5 C 905 151.8969712 845.4538784 166 772 166 C 698.5461216 166 639 151.8969712 639 134.5 Z" opacity="0.2"/></g><g transform="translate(-22,-54) scale(1,1)"><path fill="#ffffff" stroke="none" d="M 632 127.5 C 632 110.1030288 691.5461216 96 765 96 C 838.4538784 96 898 110.1030288 898 127.5 C 898 144.8969712 838.4538784 159 765 159 C 691.5461216 159 632 144.8969712 632 127.5 Z"/></g><g transform="translate(-22,-54) scale(1,1)"><path fill="none" stroke="#000000" d="M 632 127.5 C 632 110.1030288 691.5461216 96 765 96 C 838.4538784 96 898 110.1030288 898 127.5 C 898 144.8969712 838.4538784 159 765 159 C 691.5461216 159 632 144.8969712 632 127.5 Z" stroke-miterlimit="10"/></g><g transform="translate(-22,-54) scale(1,1)"><g><path fill="none" stroke="none"/><text fill="#000000" stroke="none" font-family="Arial" font-size="13px" font-style="normal" font-weight="bold" text-decoration="none" x="680.096923828125" y="134.5">CU04 - Solicitar Parqueadero</text></g></g><g transform="translate(-22,-54) scale(1,1)"><path fill="none" stroke="#000000" d="M 155 223 L 631 148" stroke-miterlimit="10"/></g><g transform="translate(-22,-54) scale(1,1)"><path fill="none" stroke="#000000" d="M 1327 270 L 895 160" stroke-miterlimit="10"/></g><g transform="translate(-22,-54) scale(1,1)"><path fill="#C0C0C0" stroke="none" d="M 783 499 C 783 487.954304 839.6359728 479 909.5 479 C 979.3640272 479 1036 487.954304 1036 499 C 1036 510.045696 979.3640272 519 909.5 519 C 839.6359728 519 783 510.045696 783 499 Z" opacity="0.2"/></g><g transform="translate(-22,-54) scale(1,1)"><path fill="#ffffff" stroke="none" d="M 776 492 C 776 480.954304 832.6359728 472 902.5 472 C 972.3640272 472 1029 480.954304 1029 492 C 1029 503.045696 972.3640272 512 902.5 512 C 832.6359728 512 776 503.045696 776 492 Z"/></g><g transform="translate(-22,-54) scale(1,1)"><path fill="none" stroke="#000000" d="M 776 492 C 776 480.954304 832.6359728 472 902.5 472 C 972.3640272 472 1029 480.954304 1029 492 C 1029 503.045696 972.3640272 512 902.5 512 C 832.6359728 512 776 503.045696 776 492 Z" stroke-miterlimit="10"/></g><g transform="translate(-22,-54) scale(1,1)"><g><path fill="none" stroke="none"/><text fill="#000000" stroke="none" font-family="Arial" font-size="13px" font-style="normal" font-weight="bold" text-decoration="none" x="840.365966796875" y="499">CU05 - Solicitar Zona</text></g></g><g transform="translate(-22,-54) scale(1,1)"><path fill="none" stroke="#000000" d="M 155 248 L 838 471" stroke-miterlimit="10"/></g><g transform="translate(-22,-54) scale(1,1)"><path fill="none" stroke="#000000" d="M 1327 296 L 947 471" stroke-miterlimit="10"/></g><g transform="translate(-22,-54) scale(1,1)"><path fill="#C0C0C0" stroke="none" d="M 655 794.5 C 655 783.7304464 727.0821472 775 816 775 C 904.9178528 775 977 783.7304464 977 794.5 C 977 805.2695536 904.9178528 814 816 814 C 727.0821472 814 655 805.2695536 655 794.5 Z" opacity="0.2"/></g><g transform="translate(-22,-54) scale(1,1)"><path fill="#ffffff" stroke="none" d="M 648 787.5 C 648 776.7304464 720.0821472 768 809 768 C 897.9178528 768 970 776.7304464 970 787.5 C 970 798.2695536 897.9178528 807 809 807 C 720.0821472 807 648 798.2695536 648 787.5 Z"/></g><g transform="translate(-22,-54) scale(1,1)"><path fill="none" stroke="#000000" d="M 648 787.5 C 648 776.7304464 720.0821472 768 809 768 C 897.9178528 768 970 776.7304464 970 787.5 C 970 798.2695536 897.9178528 807 809 807 C 720.0821472 807 648 798.2695536 648 787.5 Z" stroke-miterlimit="10"/></g><g transform="translate(-22,-54) scale(1,1)"><g><path fill="none" stroke="none"/><text fill="#000000" stroke="none" font-family="Arial" font-size="13px" font-style="normal" font-weight="bold" text-decoration="none" x="705.31103515625" y="794.5">CU06 - Revisar Asignación de Zona</text></g></g><g transform="translate(-22,-54) scale(1,1)"><path fill="none" stroke="#000000" d="M 184 620 L 734 767" stroke-miterlimit="10"/></g><g transform="translate(-22,-54) scale(1,1)"><path fill="none" stroke="#000000" d="M 155 271 L 784 767" stroke-miterlimit="10"/></g><g transform="translate(-22,-54) scale(1,1)"><path fill="none" stroke="#000000" d="M 1327 312 L 831 767" stroke-miterlimit="10"/></g><g transform="translate(-22,-54) scale(1,1)"><path fill="#C0C0C0" stroke="none" d="M 591 376 C 591 366.6111584 680.0953248 359 790 359 C 899.9046752 359 989 366.6111584 989 376 C 989 385.3888416 899.9046752 393 790 393 C 680.0953248 393 591 385.3888416 591 376 Z" opacity="0.2"/></g><g transform="translate(-22,-54) scale(1,1)"><path fill="#ffffff" stroke="none" d="M 584 369 C 584 359.6111584 673.0953248 352 783 352 C 892.9046752 352 982 359.6111584 982 369 C 982 378.3888416 892.9046752 386 783 386 C 673.0953248 386 584 378.3888416 584 369 Z"/></g><g transform="translate(-22,-54) scale(1,1)"><path fill="none" stroke="#000000" d="M 584 369 C 584 359.6111584 673.0953248 352 783 352 C 892.9046752 352 982 359.6111584 982 369 C 982 378.3888416 892.9046752 386 783 386 C 673.0953248 386 584 378.3888416 584 369 Z" stroke-miterlimit="10"/></g><g transform="translate(-22,-54) scale(1,1)"><g><path fill="none" stroke="none"/><text fill="#000000" stroke="none" font-family="Arial" font-size="13px" font-style="normal" font-weight="bold" text-decoration="none" x="655.459716796875" y="376">CU19 - Verificar Disponibilidad Parqueadero</text></g></g><g transform="translate(-22,-54) scale(1,1)"><path fill="none" stroke="#000000" d="M 767 160 L 782 351" stroke-miterlimit="10" stroke-dasharray="3"/></g><g transform="translate(-22,-54) scale(1,1)"><path fill="none" stroke="#000000" d="M 777.0077378758591 341.1980961602417 L 782 351 L 785.4009302721907 340.5389449249277" stroke-miterlimit="10"/></g><g transform="translate(-22,-54) scale(1,1)"><g><path fill="none" stroke="none"/><text fill="#000000" stroke="none" font-family="Arial" font-size="13px" font-style="normal" font-weight="normal" text-decoration="none" x="782.5" y="311.5">«include»</text></g></g><g transform="translate(-22,-54) scale(1,1)"><path fill="#C0C0C0" stroke="none" d="M 559 680 C 559 670.6111584 648.0953248 663 758 663 C 867.9046752 663 957 670.6111584 957 680 C 957 689.3888416 867.9046752 697 758 697 C 648.0953248 697 559 689.3888416 559 680 Z" opacity="0.2"/></g><g transform="translate(-22,-54) scale(1,1)"><path fill="#ffffff" stroke="none" d="M 552 673 C 552 663.6111584 641.0953248 656 751 656 C 860.9046752 656 950 663.6111584 950 673 C 950 682.3888416 860.9046752 690 751 690 C 641.0953248 690 552 682.3888416 552 673 Z"/></g><g transform="translate(-22,-54) scale(1,1)"><path fill="none" stroke="#000000" d="M 552 673 C 552 663.6111584 641.0953248 656 751 656 C 860.9046752 656 950 663.6111584 950 673 C 950 682.3888416 860.9046752 690 751 690 C 641.0953248 690 552 682.3888416 552 673 Z" stroke-miterlimit="10"/></g><g transform="translate(-22,-54) scale(1,1)"><g><path fill="none" stroke="none"/><text fill="#000000" stroke="none" font-family="Arial" font-size="13px" font-style="normal" font-weight="bold" text-decoration="none" x="646.228759765625" y="680">CU20 - Verificar Disponibilidad Zona</text></g></g><g transform="translate(-22,-54) scale(1,1)"><path fill="none" stroke="#000000" d="M 884 513 L 766 655" stroke-miterlimit="10" stroke-dasharray="3"/></g><g transform="translate(-22,-54) scale(1,1)"><path fill="none" stroke="#000000" d="M 769.2575757014446 644.4934210825141 L 766 655 L 775.7327270683459 649.8741806690941" stroke-miterlimit="10"/></g><g transform="translate(-22,-54) scale(1,1)"><g><path fill="none" stroke="none"/><text fill="#000000" stroke="none" font-family="Arial" font-size="13px" font-style="normal" font-weight="normal" text-decoration="none" x="806.5" y="620.5">«include»</text></g></g><g transform="translate(-22,-54) scale(1,1)"><path fill="none" stroke="#000000" d="M 155 266 L 725 655" stroke-miterlimit="10"/></g><g transform="translate(-22,-54) scale(1,1)"><path fill="none" stroke="#000000" d="M 1327 302 L 779 655" stroke-miterlimit="10"/></g><g transform="translate(-22,-54) scale(1,1)"><path fill="none" stroke="#000000" d="M 155 241 L 694 351" stroke-miterlimit="10"/></g><g transform="translate(-22,-54) scale(1,1)"><path fill="none" stroke="#000000" d="M 1327 285 L 899 351" stroke-miterlimit="10"/></g><g transform="translate(-22,-54) scale(1,1)"><path fill="none" stroke="#000000" d="M 184 573 L 730 387" stroke-miterlimit="10"/></g><g transform="translate(-22,-54) scale(1,1)"><path fill="#C0C0C0" stroke="none" d="M 407 440 C 407 430.6111584 474.3811376 423 557.5 423 C 640.6188624 423 708 430.6111584 708 440 C 708 449.3888416 640.6188624 457 557.5 457 C 474.3811376 457 407 449.3888416 407 440 Z" opacity="0.2"/></g><g transform="translate(-22,-54) scale(1,1)"><path fill="#ffffff" stroke="none" d="M 400 433 C 400 423.6111584 467.3811376 416 550.5 416 C 633.6188624 416 701 423.6111584 701 433 C 701 442.3888416 633.6188624 450 550.5 450 C 467.3811376 450 400 442.3888416 400 433 Z"/></g><g transform="translate(-22,-54) scale(1,1)"><path fill="none" stroke="#000000" d="M 400 433 C 400 423.6111584 467.3811376 416 550.5 416 C 633.6188624 416 701 423.6111584 701 433 C 701 442.3888416 633.6188624 450 550.5 450 C 467.3811376 450 400 442.3888416 400 433 Z" stroke-miterlimit="10"/></g><g transform="translate(-22,-54) scale(1,1)"><g><path fill="none" stroke="none"/><text fill="#000000" stroke="none" font-family="Arial" font-size="13px" font-style="normal" font-weight="bold" text-decoration="none" x="454.755126953125" y="440">CU21 - Aprobar Asignación Zona</text></g></g><g transform="translate(-22,-54) scale(1,1)"><path fill="none" stroke="#000000" d="M 657 451 L 777 471" stroke-miterlimit="10" stroke-dasharray="3"/></g><g transform="translate(-22,-54) scale(1,1)"><path fill="none" stroke="#000000" d="M 766.2835588144249 473.4815092818907 L 777 471 L 767.6676397266908 465.1770238082953" stroke-miterlimit="10"/></g><g transform="translate(-22,-54) scale(1,1)"><g><path fill="none" stroke="none"/><text fill="#000000" stroke="none" font-family="Arial" font-size="13px" font-style="normal" font-weight="normal" text-decoration="none" x="687.5" y="476.5">«extend»</text></g></g><g transform="translate(-22,-54) scale(1,1)"><path fill="none" stroke="#000000" d="M 155 254 L 510 415" stroke-miterlimit="10"/></g><g transform="translate(-22,-54) scale(1,1)"><path fill="none" stroke="#000000" d="M 184 608 L 594 655" stroke-miterlimit="10"/></g><g transform="translate(-22,-54) scale(1,1)"><path fill="#C0C0C0" stroke="none" d="M 415 288 C 415 278.6111584 497.6034544 271 599.5 271 C 701.3965456 271 784 278.6111584 784 288 C 784 297.3888416 701.3965456 305 599.5 305 C 497.6034544 305 415 297.3888416 415 288 Z" opacity="0.2"/></g><g transform="translate(-22,-54) scale(1,1)"><path fill="#ffffff" stroke="none" d="M 408 281 C 408 271.6111584 490.6034544 264 592.5 264 C 694.3965456 264 777 271.6111584 777 281 C 777 290.3888416 694.3965456 298 592.5 298 C 490.6034544 298 408 290.3888416 408 281 Z"/></g><g transform="translate(-22,-54) scale(1,1)"><path fill="none" stroke="#000000" d="M 408 281 C 408 271.6111584 490.6034544 264 592.5 264 C 694.3965456 264 777 271.6111584 777 281 C 777 290.3888416 694.3965456 298 592.5 298 C 490.6034544 298 408 290.3888416 408 281 Z" stroke-miterlimit="10"/></g><g transform="translate(-22,-54) scale(1,1)"><g><path fill="none" stroke="none"/><text fill="#000000" stroke="none" font-family="Arial" font-size="13px" font-style="normal" font-weight="bold" text-decoration="none" x="473.986083984375" y="288">CU22 - Aprobar Asignación Parqueadero</text></g></g><g transform="translate(-22,-54) scale(1,1)"><path fill="none" stroke="#000000" d="M 728 160 L 612 263" stroke-miterlimit="10" stroke-dasharray="3"/></g><g transform="translate(-22,-54) scale(1,1)"><path fill="none" stroke="#000000" d="M 616.8043245134708 253.10462401071774 L 612 263 L 622.3942579069079 259.4000829780839" stroke-miterlimit="10"/></g><g transform="translate(-22,-54) scale(1,1)"><g><path fill="none" stroke="none"/><text fill="#000000" stroke="none" font-family="Arial" font-size="13px" font-style="normal" font-weight="normal" text-decoration="none" x="671.5" y="222.5">«extend»</text></g></g><g transform="translate(-22,-54) scale(1,1)"><path fill="none" stroke="#000000" d="M 155 236 L 416 263" stroke-miterlimit="10"/></g><g transform="translate(-22,-54) scale(1,1)"><path fill="#C0C0C0" stroke="none" d="M 919 296 C 919 286.6111584 989.2912864 279 1076 279 C 1162.7087136 279 1233 286.6111584 1233 296 C 1233 305.3888416 1162.7087136 313 1076 313 C 989.2912864 313 919 305.3888416 919 296 Z" opacity="0.2"/></g><g transform="translate(-22,-54) scale(1,1)"><path fill="#ffffff" stroke="none" d="M 912 289 C 912 279.6111584 982.2912864 272 1069 272 C 1155.7087136 272 1226 279.6111584 1226 289 C 1226 298.3888416 1155.7087136 306 1069 306 C 982.2912864 306 912 298.3888416 912 289 Z"/></g><g transform="translate(-22,-54) scale(1,1)"><path fill="none" stroke="#000000" d="M 912 289 C 912 279.6111584 982.2912864 272 1069 272 C 1155.7087136 272 1226 279.6111584 1226 289 C 1226 298.3888416 1155.7087136 306 1069 306 C 982.2912864 306 912 298.3888416 912 289 Z" stroke-miterlimit="10"/></g><g transform="translate(-22,-54) scale(1,1)"><g><path fill="none" stroke="none"/><text fill="#000000" stroke="none" font-family="Arial" font-size="13px" font-style="normal" font-weight="bold" text-decoration="none" x="968.926025390625" y="296">CU23 - Llenar Formato Asignación</text></g></g><g transform="translate(-22,-54) scale(1,1)"><path fill="none" stroke="#000000" d="M 827 160 L 1035 271" stroke-miterlimit="10" stroke-dasharray="3"/></g><g transform="translate(-22,-54) scale(1,1)"><path fill="none" stroke="#000000" d="M 1024.0522512633672 269.92911363835566 L 1035 271 L 1028.0160036377995 262.5015416214016" stroke-miterlimit="10"/></g><g transform="translate(-22,-54) scale(1,1)"><g><path fill="none" stroke="none"/><text fill="#000000" stroke="none" font-family="Arial" font-size="13px" font-style="normal" font-weight="normal" text-decoration="none" x="869.5" y="230.5">«include»</text></g></g><g transform="translate(-22,-54) scale(1,1)"><path fill="none" stroke="#000000" d="M 919 471 L 1054 307" stroke-miterlimit="10" stroke-dasharray="3"/></g><g transform="translate(-22,-54) scale(1,1)"><path fill="none" stroke="#000000" d="M 1050.7912170071145 317.52158313679877 L 1054 307 L 1044.2911650015262 312.17093057122304" stroke-miterlimit="10"/></g><g transform="translate(-22,-54) scale(1,1)"><g><path fill="none" stroke="none"/><text fill="#000000" stroke="none" font-family="Arial" font-size="13px" font-style="normal" font-weight="normal" text-decoration="none" x="977.5" y="416.5">«include»</text></g></g><g transform="translate(-22,-54) scale(1,1)"><path fill="none" stroke="#000000" d="M 1327 280 L 1227 284" stroke-miterlimit="10"/></g><g transform="translate(-22,-54) scale(1,1)"><path fill="#C0C0C0" stroke="none" d="M 279 224 C 279 214.6111584 363.8420304 207 468.5 207 C 573.1579696 207 658 214.6111584 658 224 C 658 233.3888416 573.1579696 241 468.5 241 C 363.8420304 241 279 233.3888416 279 224 Z" opacity="0.2"/></g><g transform="translate(-22,-54) scale(1,1)"><path fill="#ffffff" stroke="none" d="M 272 217 C 272 207.6111584 356.8420304 200 461.5 200 C 566.1579696 200 651 207.6111584 651 217 C 651 226.3888416 566.1579696 234 461.5 234 C 356.8420304 234 272 226.3888416 272 217 Z"/></g><g transform="translate(-22,-54) scale(1,1)"><path fill="none" stroke="#000000" d="M 272 217 C 272 207.6111584 356.8420304 200 461.5 200 C 566.1579696 200 651 207.6111584 651 217 C 651 226.3888416 566.1579696 234 461.5 234 C 356.8420304 234 272 226.3888416 272 217 Z" stroke-miterlimit="10"/></g><g transform="translate(-22,-54) scale(1,1)"><g><path fill="none" stroke="none"/><text fill="#000000" stroke="none" font-family="Arial" font-size="13px" font-style="normal" font-weight="bold" text-decoration="none" x="338.2919921875" y="224">CU24 - Rechazar Asignación Parqueadero</text></g></g><g transform="translate(-22,-54) scale(1,1)"><path fill="none" stroke="#000000" d="M 654 160 L 522 199" stroke-miterlimit="10" stroke-dasharray="3"/></g><g transform="translate(-22,-54) scale(1,1)"><path fill="none" stroke="#000000" d="M 530.5534345379951 192.0834432262699 L 522 199 L 532.9389357614178 200.15744736708533" stroke-miterlimit="10"/></g><g transform="translate(-22,-54) scale(1,1)"><g><path fill="none" stroke="none"/><text fill="#000000" stroke="none" font-family="Arial" font-size="13px" font-style="normal" font-weight="normal" text-decoration="none" x="596.5" y="184.5">«extend»</text></g></g><g transform="translate(-22,-54) scale(1,1)"><path fill="none" stroke="#000000" d="M 155 229 L 271 224" stroke-miterlimit="10"/></g><g transform="translate(-22,-54) scale(1,1)"><path fill="#C0C0C0" stroke="none" d="M 423 584 C 423 574.6111584 492.6197136 567 578.5 567 C 664.3802864 567 734 574.6111584 734 584 C 734 593.3888416 664.3802864 601 578.5 601 C 492.6197136 601 423 593.3888416 423 584 Z" opacity="0.2"/></g><g transform="translate(-22,-54) scale(1,1)"><path fill="#ffffff" stroke="none" d="M 416 577 C 416 567.6111584 485.6197136 560 571.5 560 C 657.3802864 560 727 567.6111584 727 577 C 727 586.3888416 657.3802864 594 571.5 594 C 485.6197136 594 416 586.3888416 416 577 Z"/></g><g transform="translate(-22,-54) scale(1,1)"><path fill="none" stroke="#000000" d="M 416 577 C 416 567.6111584 485.6197136 560 571.5 560 C 657.3802864 560 727 567.6111584 727 577 C 727 586.3888416 657.3802864 594 571.5 594 C 485.6197136 594 416 586.3888416 416 577 Z" stroke-miterlimit="10"/></g><g transform="translate(-22,-54) scale(1,1)"><g><path fill="none" stroke="none"/><text fill="#000000" stroke="none" font-family="Arial" font-size="13px" font-style="normal" font-weight="bold" text-decoration="none" x="471.06103515625" y="584">CU25 - Rechazar Asignación Zona</text></g></g><g transform="translate(-22,-54) scale(1,1)"><path fill="none" stroke="#000000" d="M 641 559 L 820 513" stroke-miterlimit="10" stroke-dasharray="3"/></g><g transform="translate(-22,-54) scale(1,1)"><path fill="none" stroke="#000000" d="M 811.2048746603359 519.6064945515454 L 820 513 L 809.1094101336681 511.4524043282077" stroke-miterlimit="10"/></g><g transform="translate(-22,-54) scale(1,1)"><g><path fill="none" stroke="none"/><text fill="#000000" stroke="none" font-family="Arial" font-size="13px" font-style="normal" font-weight="normal" text-decoration="none" x="678.5" y="532.5">«extend»</text></g></g><g transform="translate(-22,-54) scale(1,1)"><path fill="none" stroke="#000000" d="M 547 559 L 155 269" stroke-miterlimit="10"/></g></g></svg>