<svg version="1.1" xmlns="http://www.w3.org/2000/svg" xmlns:xlink="http://www.w3.org/1999/xlink" width="1427.130859375" height="788"><defs/><g><g transform="translate(2,-70) scale(1,1)"><path fill="none" stroke="#000000" d="M 192 80 L 1176 80 L 1176 848 L 192 848 L 192 80" stroke-miterlimit="10"/></g><g transform="translate(2,-70) scale(1,1)"><path fill="#ffffff" stroke="none" d="M 192 80 L 192 102 L 420.44970703125 102 L 431.44970703125 91 L 431.44970703125 80 L 192 80"/></g><g transform="translate(2,-70) scale(1,1)"><path fill="none" stroke="#000000" d="M 192 80 L 192 102 L 420.44970703125 102 L 431.44970703125 91 L 431.44970703125 80 L 192 80 L 192 80" stroke-miterlimit="10"/></g><g transform="translate(2,-70) scale(1,1)"><g><path fill="none" stroke="none"/><text fill="#000000" stroke="none" font-family="Arial" font-size="13px" font-style="normal" font-weight="normal" text-decoration="none" x="255.03173828125" y="97.5">Modulo Mensajeria y Pagos</text></g></g><g transform="translate(2,-70) scale(1,1)"><g><path fill="none" stroke="none"/><text fill="#000000" stroke="none" font-family="Arial" font-size="13px" font-style="normal" font-weight="bold" text-decoration="none" x="197" y="97.5">use case</text></g></g><g transform="translate(2,-70) scale(1,1)"><path fill="#ffffff" stroke="none" d="M 64.24162571022727 177.68 C 64.24162571022727 172.886167936 68.12746803517273 169 72.9208984375 169 C 77.71432883982727 169 81.60017116477273 172.886167936 81.60017116477273 177.68 C 81.60017116477273 182.47383206400002 77.71432883982727 186.36 72.9208984375 186.36 C 68.12746803517273 186.36 64.24162571022727 182.47383206400002 64.24162571022727 177.68 Z"/></g><g transform="translate(2,-70) scale(1,1)"><path fill="none" stroke="#000000" d="M 64.24162571022727 177.68 C 64.24162571022727 172.886167936 68.12746803517273 169 72.9208984375 169 C 77.71432883982727 169 81.60017116477273 172.886167936 81.60017116477273 177.68 C 81.60017116477273 182.47383206400002 77.71432883982727 186.36 72.9208984375 186.36 C 68.12746803517273 186.36 64.24162571022727 182.47383206400002 64.24162571022727 177.68 Z" stroke-miterlimit="10"/></g><g transform="translate(2,-70) scale(1,1)"><path fill="none" stroke="#000000" d="M 72.9208984375 186.36 L 72.9208984375 203.64" stroke-miterlimit="10"/></g><g transform="translate(2,-70) scale(1,1)"><path fill="none" stroke="#000000" d="M 63.73108025568182 192.84 L 82.11071661931818 192.84" stroke-miterlimit="10"/></g><g transform="translate(2,-70) scale(1,1)"><path fill="none" stroke="#000000" d="M 72.9208984375 203.64 L 60.157262073863635 221" stroke-miterlimit="10"/></g><g transform="translate(2,-70) scale(1,1)"><path fill="none" stroke="#000000" d="M 72.9208984375 203.64 L 85.68453480113637 221" stroke-miterlimit="10"/></g><g transform="translate(2,-70) scale(1,1)"><g><path fill="none" stroke="none"/><text fill="#000000" stroke="none" font-family="Arial" font-size="13px" font-style="normal" font-weight="bold" text-decoration="none" x="32.82275390625" y="241.5">Administrador</text></g></g><g transform="translate(2,-70) scale(1,1)"><path fill="#ffffff" stroke="none" d="M 74.61296360085227 665.6800000000001 C 74.61296360085227 660.8861679360001 78.49880592579773 657 83.292236328125 657 C 88.08566673045227 657 91.97150905539773 660.8861679360001 91.97150905539773 665.6800000000001 C 91.97150905539773 670.473832064 88.08566673045227 674.36 83.292236328125 674.36 C 78.49880592579773 674.36 74.61296360085227 670.473832064 74.61296360085227 665.6800000000001 Z"/></g><g transform="translate(2,-70) scale(1,1)"><path fill="none" stroke="#000000" d="M 74.61296360085227 665.6800000000001 C 74.61296360085227 660.8861679360001 78.49880592579773 657 83.292236328125 657 C 88.08566673045227 657 91.97150905539773 660.8861679360001 91.97150905539773 665.6800000000001 C 91.97150905539773 670.473832064 88.08566673045227 674.36 83.292236328125 674.36 C 78.49880592579773 674.36 74.61296360085227 670.473832064 74.61296360085227 665.6800000000001 Z" stroke-miterlimit="10"/></g><g transform="translate(2,-70) scale(1,1)"><path fill="none" stroke="#000000" d="M 83.292236328125 674.36 L 83.292236328125 691.64" stroke-miterlimit="10"/></g><g transform="translate(2,-70) scale(1,1)"><path fill="none" stroke="#000000" d="M 74.10241814630682 680.84 L 92.48205450994318 680.84" stroke-miterlimit="10"/></g><g transform="translate(2,-70) scale(1,1)"><path fill="none" stroke="#000000" d="M 83.292236328125 691.64 L 70.52859996448863 709" stroke-miterlimit="10"/></g><g transform="translate(2,-70) scale(1,1)"><path fill="none" stroke="#000000" d="M 83.292236328125 691.64 L 96.05587269176137 709" stroke-miterlimit="10"/></g><g transform="translate(2,-70) scale(1,1)"><g><path fill="none" stroke="none"/><text fill="#000000" stroke="none" font-family="Arial" font-size="13px" font-style="normal" font-weight="bold" text-decoration="none" x="18.628662109375" y="729.5">Administrador Porteria</text></g></g><g transform="translate(2,-70) scale(1,1)"><path fill="#ffffff" stroke="none" d="M 1370.8861569602273 329.68 C 1370.8861569602273 324.886167936 1374.7719992851728 321 1379.5654296875 321 C 1384.3588600898272 321 1388.2447024147727 324.886167936 1388.2447024147727 329.68 C 1388.2447024147727 334.473832064 1384.3588600898272 338.36 1379.5654296875 338.36 C 1374.7719992851728 338.36 1370.8861569602273 334.473832064 1370.8861569602273 329.68 Z"/></g><g transform="translate(2,-70) scale(1,1)"><path fill="none" stroke="#000000" d="M 1370.8861569602273 329.68 C 1370.8861569602273 324.886167936 1374.7719992851728 321 1379.5654296875 321 C 1384.3588600898272 321 1388.2447024147727 324.886167936 1388.2447024147727 329.68 C 1388.2447024147727 334.473832064 1384.3588600898272 338.36 1379.5654296875 338.36 C 1374.7719992851728 338.36 1370.8861569602273 334.473832064 1370.8861569602273 329.68 Z" stroke-miterlimit="10"/></g><g transform="translate(2,-70) scale(1,1)"><path fill="none" stroke="#000000" d="M 1379.5654296875 338.36 L 1379.5654296875 355.64" stroke-miterlimit="10"/></g><g transform="translate(2,-70) scale(1,1)"><path fill="none" stroke="#000000" d="M 1370.3756115056817 344.84 L 1388.7552478693183 344.84" stroke-miterlimit="10"/></g><g transform="translate(2,-70) scale(1,1)"><path fill="none" stroke="#000000" d="M 1379.5654296875 355.64 L 1366.8017933238636 373" stroke-miterlimit="10"/></g><g transform="translate(2,-70) scale(1,1)"><path fill="none" stroke="#000000" d="M 1379.5654296875 355.64 L 1392.3290660511364 373" stroke-miterlimit="10"/></g><g transform="translate(2,-70) scale(1,1)"><g><path fill="none" stroke="none"/><text fill="#000000" stroke="none" font-family="Arial" font-size="13px" font-style="normal" font-weight="bold" text-decoration="none" x="1350.29638671875" y="393.5">Residente</text></g></g><g transform="translate(2,-70) scale(1,1)"><path fill="#C0C0C0" stroke="none" d="M 615 146.5 C 615 126.8938896 660.6669504 111 717 111 C 773.3330496 111 819 126.8938896 819 146.5 C 819 166.1061104 773.3330496 182 717 182 C 660.6669504 182 615 166.1061104 615 146.5 Z" opacity="0.2"/></g><g transform="translate(2,-70) scale(1,1)"><path fill="#ffffff" stroke="none" d="M 608 139.5 C 608 119.8938896 653.6669504 104 710 104 C 766.3330496 104 812 119.8938896 812 139.5 C 812 159.1061104 766.3330496 175 710 175 C 653.6669504 175 608 159.1061104 608 139.5 Z"/></g><g transform="translate(2,-70) scale(1,1)"><path fill="none" stroke="#000000" d="M 608 139.5 C 608 119.8938896 653.6669504 104 710 104 C 766.3330496 104 812 119.8938896 812 139.5 C 812 159.1061104 766.3330496 175 710 175 C 653.6669504 175 608 159.1061104 608 139.5 Z" stroke-miterlimit="10"/></g><g transform="translate(2,-70) scale(1,1)"><g><path fill="none" stroke="none"/><text fill="#000000" stroke="none" font-family="Arial" font-size="13px" font-style="normal" font-weight="bold" text-decoration="none" x="645.33642578125" y="146.5">CU07 - Revisar Buzón</text></g></g><g transform="translate(2,-70) scale(1,1)"><path fill="none" stroke="#000000" d="M 1343 347 L 813 173" stroke-miterlimit="10"/></g><g transform="translate(2,-70) scale(1,1)"><path fill="none" stroke="#000000" d="M 123 202 L 607 150" stroke-miterlimit="10"/></g><g transform="translate(2,-70) scale(1,1)"><path fill="#C0C0C0" stroke="none" d="M 303 366.5 C 303 344.6847504 354.487248 327 418 327 C 481.512752 327 533 344.6847504 533 366.5 C 533 388.3152496 481.512752 406 418 406 C 354.487248 406 303 388.3152496 303 366.5 Z" opacity="0.2"/></g><g transform="translate(2,-70) scale(1,1)"><path fill="#ffffff" stroke="none" d="M 296 359.5 C 296 337.6847504 347.487248 320 411 320 C 474.512752 320 526 337.6847504 526 359.5 C 526 381.3152496 474.512752 399 411 399 C 347.487248 399 296 381.3152496 296 359.5 Z"/></g><g transform="translate(2,-70) scale(1,1)"><path fill="none" stroke="#000000" d="M 296 359.5 C 296 337.6847504 347.487248 320 411 320 C 474.512752 320 526 337.6847504 526 359.5 C 526 381.3152496 474.512752 399 411 399 C 347.487248 399 296 381.3152496 296 359.5 Z" stroke-miterlimit="10"/></g><g transform="translate(2,-70) scale(1,1)"><g><path fill="none" stroke="none"/><text fill="#000000" stroke="none" font-family="Arial" font-size="13px" font-style="normal" font-weight="bold" text-decoration="none" x="336.9482421875" y="366.5">CU08 - Revisar Mensajes</text></g></g><g transform="translate(2,-70) scale(1,1)"><path fill="none" stroke="#000000" d="M 122 655 L 371 400" stroke-miterlimit="10"/></g><g transform="translate(2,-70) scale(1,1)"><path fill="none" stroke="#000000" d="M 123 230 L 322 319" stroke-miterlimit="10"/></g><g transform="translate(2,-70) scale(1,1)"><path fill="none" stroke="#000000" d="M 1343 359 L 527 359" stroke-miterlimit="10"/></g><g transform="translate(2,-70) scale(1,1)"><path fill="#C0C0C0" stroke="none" d="M 647 695 C 647 677.3268864 706.5461216 663 780 663 C 853.4538784 663 913 677.3268864 913 695 C 913 712.6731136 853.4538784 727 780 727 C 706.5461216 727 647 712.6731136 647 695 Z" opacity="0.2"/></g><g transform="translate(2,-70) scale(1,1)"><path fill="#ffffff" stroke="none" d="M 640 688 C 640 670.3268864 699.5461216 656 773 656 C 846.4538784 656 906 670.3268864 906 688 C 906 705.6731136 846.4538784 720 773 720 C 699.5461216 720 640 705.6731136 640 688 Z"/></g><g transform="translate(2,-70) scale(1,1)"><path fill="none" stroke="#000000" d="M 640 688 C 640 670.3268864 699.5461216 656 773 656 C 846.4538784 656 906 670.3268864 906 688 C 906 705.6731136 846.4538784 720 773 720 C 699.5461216 720 640 705.6731136 640 688 Z" stroke-miterlimit="10"/></g><g transform="translate(2,-70) scale(1,1)"><g><path fill="none" stroke="none"/><text fill="#000000" stroke="none" font-family="Arial" font-size="13px" font-style="normal" font-weight="bold" text-decoration="none" x="688.826904296875" y="695">CU09 - Pagar Administración</text></g></g><g transform="translate(2,-70) scale(1,1)"><path fill="none" stroke="#000000" d="M 1343 379 L 834 655" stroke-miterlimit="10"/></g><g transform="translate(2,-70) scale(1,1)"><path fill="#C0C0C0" stroke="none" d="M 783 298.5 C 783 274.4756112 837.845112 255 905.5 255 C 973.154888 255 1028 274.4756112 1028 298.5 C 1028 322.5243888 973.154888 342 905.5 342 C 837.845112 342 783 322.5243888 783 298.5 Z" opacity="0.2"/></g><g transform="translate(2,-70) scale(1,1)"><path fill="#ffffff" stroke="none" d="M 776 291.5 C 776 267.4756112 830.845112 248 898.5 248 C 966.154888 248 1021 267.4756112 1021 291.5 C 1021 315.5243888 966.154888 335 898.5 335 C 830.845112 335 776 315.5243888 776 291.5 Z"/></g><g transform="translate(2,-70) scale(1,1)"><path fill="none" stroke="#000000" d="M 776 291.5 C 776 267.4756112 830.845112 248 898.5 248 C 966.154888 248 1021 267.4756112 1021 291.5 C 1021 315.5243888 966.154888 335 898.5 335 C 830.845112 335 776 315.5243888 776 291.5 Z" stroke-miterlimit="10"/></g><g transform="translate(2,-70) scale(1,1)"><g><path fill="none" stroke="none"/><text fill="#000000" stroke="none" font-family="Arial" font-size="13px" font-style="normal" font-weight="bold" text-decoration="none" x="820.10009765625" y="298.5">CU10 - Ver Otros paquetes</text></g></g><g transform="translate(2,-70) scale(1,1)"><path fill="none" stroke="#000000" d="M 1343 354 L 1022 309" stroke-miterlimit="10"/></g><g transform="translate(2,-70) scale(1,1)"><path fill="#C0C0C0" stroke="none" d="M 607 808 C 607 798.6111584 652.890808 791 709.5 791 C 766.109192 791 812 798.6111584 812 808 C 812 817.3888416 766.109192 825 709.5 825 C 652.890808 825 607 817.3888416 607 808 Z" opacity="0.2"/></g><g transform="translate(2,-70) scale(1,1)"><path fill="#ffffff" stroke="none" d="M 600 801 C 600 791.6111584 645.890808 784 702.5 784 C 759.109192 784 805 791.6111584 805 801 C 805 810.3888416 759.109192 818 702.5 818 C 645.890808 818 600 810.3888416 600 801 Z"/></g><g transform="translate(2,-70) scale(1,1)"><path fill="none" stroke="#000000" d="M 600 801 C 600 791.6111584 645.890808 784 702.5 784 C 759.109192 784 805 791.6111584 805 801 C 805 810.3888416 759.109192 818 702.5 818 C 645.890808 818 600 810.3888416 600 801 Z" stroke-miterlimit="10"/></g><g transform="translate(2,-70) scale(1,1)"><g><path fill="none" stroke="none"/><text fill="#000000" stroke="none" font-family="Arial" font-size="13px" font-style="normal" font-weight="bold" text-decoration="none" x="636.02734375" y="808">CU26 - Pagar Por PSE</text></g></g><g transform="translate(2,-70) scale(1,1)"><path fill="none" stroke="#000000" d="M 752 721 L 713 783" stroke-miterlimit="10" stroke-dasharray="3"/></g><g transform="translate(2,-70) scale(1,1)"><path fill="none" stroke="#000000" d="M 714.8479360283663 772.1563321502794 L 713 783 L 721.9743191663288 776.6390570273848" stroke-miterlimit="10"/></g><g transform="translate(2,-70) scale(1,1)"><g><path fill="none" stroke="none"/><text fill="#000000" stroke="none" font-family="Arial" font-size="13px" font-style="normal" font-weight="normal" text-decoration="none" x="734.5" y="764.5">«extend»</text></g></g><g transform="translate(2,-70) scale(1,1)"><path fill="#C0C0C0" stroke="none" d="M 879 792 C 879 782.6111584 929.8156752 775 992.5 775 C 1055.1843248 775 1106 782.6111584 1106 792 C 1106 801.3888416 1055.1843248 809 992.5 809 C 929.8156752 809 879 801.3888416 879 792 Z" opacity="0.2"/></g><g transform="translate(2,-70) scale(1,1)"><path fill="#ffffff" stroke="none" d="M 872 785 C 872 775.6111584 922.8156752 768 985.5 768 C 1048.1843248 768 1099 775.6111584 1099 785 C 1099 794.3888416 1048.1843248 802 985.5 802 C 922.8156752 802 872 794.3888416 872 785 Z"/></g><g transform="translate(2,-70) scale(1,1)"><path fill="none" stroke="#000000" d="M 872 785 C 872 775.6111584 922.8156752 768 985.5 768 C 1048.1843248 768 1099 775.6111584 1099 785 C 1099 794.3888416 1048.1843248 802 985.5 802 C 922.8156752 802 872 794.3888416 872 785 Z" stroke-miterlimit="10"/></g><g transform="translate(2,-70) scale(1,1)"><g><path fill="none" stroke="none"/><text fill="#000000" stroke="none" font-family="Arial" font-size="13px" font-style="normal" font-weight="bold" text-decoration="none" x="912.524169921875" y="792">CU27 - Pagar Por Tarjeta</text></g></g><g transform="translate(2,-70) scale(1,1)"><path fill="none" stroke="#000000" d="M 845 721 L 946 767" stroke-miterlimit="10" stroke-dasharray="3"/></g><g transform="translate(2,-70) scale(1,1)"><path fill="none" stroke="#000000" d="M 935.0066119591015 766.6186610664628 L 946 767 L 938.4961481139002 758.956853422231" stroke-miterlimit="10"/></g><g transform="translate(2,-70) scale(1,1)"><g><path fill="none" stroke="none"/><text fill="#000000" stroke="none" font-family="Arial" font-size="13px" font-style="normal" font-weight="normal" text-decoration="none" x="874.5" y="736.5">«extend»</text></g></g><g transform="translate(2,-70) scale(1,1)"><path fill="#C0C0C0" stroke="none" d="M 319 808 C 319 798.6111584 366.9055264 791 426 791 C 485.0944736 791 533 798.6111584 533 808 C 533 817.3888416 485.0944736 825 426 825 C 366.9055264 825 319 817.3888416 319 808 Z" opacity="0.2"/></g><g transform="translate(2,-70) scale(1,1)"><path fill="#ffffff" stroke="none" d="M 312 801 C 312 791.6111584 359.9055264 784 419 784 C 478.0944736 784 526 791.6111584 526 801 C 526 810.3888416 478.0944736 818 419 818 C 359.9055264 818 312 810.3888416 312 801 Z"/></g><g transform="translate(2,-70) scale(1,1)"><path fill="none" stroke="#000000" d="M 312 801 C 312 791.6111584 359.9055264 784 419 784 C 478.0944736 784 526 791.6111584 526 801 C 526 810.3888416 478.0944736 818 419 818 C 359.9055264 818 312 810.3888416 312 801 Z" stroke-miterlimit="10"/></g><g transform="translate(2,-70) scale(1,1)"><g><path fill="none" stroke="none"/><text fill="#000000" stroke="none" font-family="Arial" font-size="13px" font-style="normal" font-weight="bold" text-decoration="none" x="350.73095703125" y="808">CU28 - Revisar Factura</text></g></g><g transform="translate(2,-70) scale(1,1)"><path fill="none" stroke="#000000" d="M 670 721 L 475 783" stroke-miterlimit="10" stroke-dasharray="3"/></g><g transform="translate(2,-70) scale(1,1)"><path fill="none" stroke="#000000" d="M 483.4094349204478 775.9090618167444 L 475 783 L 485.9604189325503 783.9323179838409" stroke-miterlimit="10"/></g><g transform="translate(2,-70) scale(1,1)"><g><path fill="none" stroke="none"/><text fill="#000000" stroke="none" font-family="Arial" font-size="13px" font-style="normal" font-weight="normal" text-decoration="none" x="565.5" y="773.5">«include»</text></g></g><g transform="translate(2,-70) scale(1,1)"><path fill="#C0C0C0" stroke="none" d="M 495 456 C 495 446.6111584 545.5918176 439 608 439 C 670.4081824 439 721 446.6111584 721 456 C 721 465.3888416 670.4081824 473 608 473 C 545.5918176 473 495 465.3888416 495 456 Z" opacity="0.2"/></g><g transform="translate(2,-70) scale(1,1)"><path fill="#ffffff" stroke="none" d="M 488 449 C 488 439.6111584 538.5918176 432 601 432 C 663.4081824 432 714 439.6111584 714 449 C 714 458.3888416 663.4081824 466 601 466 C 538.5918176 466 488 458.3888416 488 449 Z"/></g><g transform="translate(2,-70) scale(1,1)"><path fill="none" stroke="#000000" d="M 488 449 C 488 439.6111584 538.5918176 432 601 432 C 663.4081824 432 714 439.6111584 714 449 C 714 458.3888416 663.4081824 466 601 466 C 538.5918176 466 488 458.3888416 488 449 Z" stroke-miterlimit="10"/></g><g transform="translate(2,-70) scale(1,1)"><g><path fill="none" stroke="none"/><text fill="#000000" stroke="none" font-family="Arial" font-size="13px" font-style="normal" font-weight="bold" text-decoration="none" x="528.754150390625" y="456">CU29 - Eliminar Mensaje</text></g></g><g transform="translate(2,-70) scale(1,1)"><path fill="none" stroke="#000000" d="M 498 400 L 563 431" stroke-miterlimit="10" stroke-dasharray="3"/></g><g transform="translate(2,-70) scale(1,1)"><path fill="none" stroke="#000000" d="M 552.0150505256684 430.42477391715863 L 563 431 L 555.639213999601 422.825721471816" stroke-miterlimit="10"/></g><g transform="translate(2,-70) scale(1,1)"><g><path fill="none" stroke="none"/><text fill="#000000" stroke="none" font-family="Arial" font-size="13px" font-style="normal" font-weight="normal" text-decoration="none" x="520.5" y="407.5">«include»</text></g></g><g transform="translate(2,-70) scale(1,1)"><path fill="#C0C0C0" stroke="none" d="M 199 504 C 199 494.6111584 258.9938368 487 333 487 C 407.0061632 487 467 494.6111584 467 504 C 467 513.3888416 407.0061632 521 333 521 C 258.9938368 521 199 513.3888416 199 504 Z" opacity="0.2"/></g><g transform="translate(2,-70) scale(1,1)"><path fill="#ffffff" stroke="none" d="M 192 497 C 192 487.6111584 251.9938368 480 326 480 C 400.0061632 480 460 487.6111584 460 497 C 460 506.3888416 400.0061632 514 326 514 C 251.9938368 514 192 506.3888416 192 497 Z"/></g><g transform="translate(2,-70) scale(1,1)"><path fill="none" stroke="#000000" d="M 192 497 C 192 487.6111584 251.9938368 480 326 480 C 400.0061632 480 460 487.6111584 460 497 C 460 506.3888416 400.0061632 514 326 514 C 251.9938368 514 192 506.3888416 192 497 Z" stroke-miterlimit="10"/></g><g transform="translate(2,-70) scale(1,1)"><g><path fill="none" stroke="none"/><text fill="#000000" stroke="none" font-family="Arial" font-size="13px" font-style="normal" font-weight="bold" text-decoration="none" x="239.29736328125" y="504">CU30 - Marcar Mensaje Leido</text></g></g><g transform="translate(2,-70) scale(1,1)"><path fill="none" stroke="#000000" d="M 386 400 L 337 479" stroke-miterlimit="10" stroke-dasharray="3"/></g><g transform="translate(2,-70) scale(1,1)"><path fill="none" stroke="#000000" d="M 338.77942092804284 468.14487857456936 L 337 479 L 345.93397057532974 472.58251063427895" stroke-miterlimit="10"/></g><g transform="translate(2,-70) scale(1,1)"><g><path fill="none" stroke="none"/><text fill="#000000" stroke="none" font-family="Arial" font-size="13px" font-style="normal" font-weight="normal" text-decoration="none" x="358.5" y="460.5">«include»</text></g></g><g transform="translate(2,-70) scale(1,1)"><path fill="none" stroke="#000000" d="M 660 176 L 465 319" stroke-miterlimit="10" stroke-dasharray="3"/></g><g transform="translate(2,-70) scale(1,1)"><path fill="none" stroke="#000000" d="M 470.70587593414257 309.5955872153455 L 465 319 L 475.68458761874797 316.38473951253474" stroke-miterlimit="10"/></g><g transform="translate(2,-70) scale(1,1)"><g><path fill="none" stroke="none"/><text fill="#000000" stroke="none" font-family="Arial" font-size="13px" font-style="normal" font-weight="normal" text-decoration="none" x="551.5" y="277.5">«include»</text></g></g><g transform="translate(2,-70) scale(1,1)"><path fill="none" stroke="#000000" d="M 756 176 L 844 247" stroke-miterlimit="10" stroke-dasharray="3"/></g><g transform="translate(2,-70) scale(1,1)"><path fill="none" stroke="#000000" d="M 833.4473956194934 243.89475592126627 L 844 247 L 838.7339210286768 237.34244273805285" stroke-miterlimit="10"/></g><g transform="translate(2,-70) scale(1,1)"><g><path fill="none" stroke="none"/><text fill="#000000" stroke="none" font-family="Arial" font-size="13px" font-style="normal" font-weight="normal" text-decoration="none" x="726.5" y="219.5">«include»</text></g></g><g transform="translate(2,-70) scale(1,1)"><path fill="#C0C0C0" stroke="none" d="M 679 584 C 679 574.6111584 734.2928272 567 802.5 567 C 870.7071728 567 926 574.6111584 926 584 C 926 593.3888416 870.7071728 601 802.5 601 C 734.2928272 601 679 593.3888416 679 584 Z" opacity="0.2"/></g><g transform="translate(2,-70) scale(1,1)"><path fill="#ffffff" stroke="none" d="M 672 577 C 672 567.6111584 727.2928272 560 795.5 560 C 863.7071728 560 919 567.6111584 919 577 C 919 586.3888416 863.7071728 594 795.5 594 C 727.2928272 594 672 586.3888416 672 577 Z"/></g><g transform="translate(2,-70) scale(1,1)"><path fill="none" stroke="#000000" d="M 672 577 C 672 567.6111584 727.2928272 560 795.5 560 C 863.7071728 560 919 567.6111584 919 577 C 919 586.3888416 863.7071728 594 795.5 594 C 727.2928272 594 672 586.3888416 672 577 Z" stroke-miterlimit="10"/></g><g transform="translate(2,-70) scale(1,1)"><g><path fill="none" stroke="none"/><text fill="#000000" stroke="none" font-family="Arial" font-size="13px" font-style="normal" font-weight="bold" text-decoration="none" x="717.474609375" y="584">CU31 - Confirmar Recibido</text></g></g><g transform="translate(2,-70) scale(1,1)"><path fill="none" stroke="#000000" d="M 882 336 L 801 559" stroke-miterlimit="10" stroke-dasharray="3"/></g><g transform="translate(2,-70) scale(1,1)"><path fill="none" stroke="#000000" d="M 800.5129892755167 548.0107861721488 L 801 559 L 808.4261790317898 550.8850837966246" stroke-miterlimit="10"/></g><g transform="translate(2,-70) scale(1,1)"><g><path fill="none" stroke="none"/><text fill="#000000" stroke="none" font-family="Arial" font-size="13px" font-style="normal" font-weight="normal" text-decoration="none" x="831.5" y="475.5">«include»</text></g></g><g transform="translate(2,-70) scale(1,1)"><path fill="none" stroke="#000000" d="M 843 559 L 1343 372" stroke-miterlimit="10"/></g><g transform="translate(2,-70) scale(1,1)"><path fill="#C0C0C0" stroke="none" d="M 543 536 C 543 526.6111584 596.0542512 519 661.5 519 C 726.9457488 519 780 526.6111584 780 536 C 780 545.3888416 726.9457488 553 661.5 553 C 596.0542512 553 543 545.3888416 543 536 Z" opacity="0.2"/></g><g transform="translate(2,-70) scale(1,1)"><path fill="#ffffff" stroke="none" d="M 536 529 C 536 519.6111584 589.0542512 512 654.5 512 C 719.9457488 512 773 519.6111584 773 529 C 773 538.3888416 719.9457488 546 654.5 546 C 589.0542512 546 536 538.3888416 536 529 Z"/></g><g transform="translate(2,-70) scale(1,1)"><path fill="none" stroke="#000000" d="M 536 529 C 536 519.6111584 589.0542512 512 654.5 512 C 719.9457488 512 773 519.6111584 773 529 C 773 538.3888416 719.9457488 546 654.5 546 C 589.0542512 546 536 538.3888416 536 529 Z" stroke-miterlimit="10"/></g><g transform="translate(2,-70) scale(1,1)"><g><path fill="none" stroke="none"/><text fill="#000000" stroke="none" font-family="Arial" font-size="13px" font-style="normal" font-weight="bold" text-decoration="none" x="579.0009765625" y="536">CU32 - Confirmar Entrega</text></g></g><g transform="translate(2,-70) scale(1,1)"><path fill="none" stroke="#000000" d="M 160 673 L 592 547" stroke-miterlimit="10"/></g><g transform="translate(2,-70) scale(1,1)"><path fill="none" stroke="#000000" d="M 852 336 L 672 511" stroke-miterlimit="10" stroke-dasharray="3"/></g><g transform="translate(2,-70) scale(1,1)"><path fill="none" stroke="#000000" d="M 676.3522223605827 500.89761609697774 L 672 511 L 682.2209501083767 506.9340217804229" stroke-miterlimit="10"/></g><g transform="translate(2,-70) scale(1,1)"><g><path fill="none" stroke="none"/><text fill="#000000" stroke="none" font-family="Arial" font-size="13px" font-style="normal" font-weight="normal" text-decoration="none" x="754.5" y="450.5">«include»</text></g></g><g transform="translate(2,-70) scale(1,1)"><path fill="#C0C0C0" stroke="none" d="M 911 440 C 911 430.6111584 961.1441024 423 1023 423 C 1084.8558976 423 1135 430.6111584 1135 440 C 1135 449.3888416 1084.8558976 457 1023 457 C 961.1441024 457 911 449.3888416 911 440 Z" opacity="0.2"/></g><g transform="translate(2,-70) scale(1,1)"><path fill="#ffffff" stroke="none" d="M 904 433 C 904 423.6111584 954.1441024 416 1016 416 C 1077.8558976 416 1128 423.6111584 1128 433 C 1128 442.3888416 1077.8558976 450 1016 450 C 954.1441024 450 904 442.3888416 904 433 Z"/></g><g transform="translate(2,-70) scale(1,1)"><path fill="none" stroke="#000000" d="M 904 433 C 904 423.6111584 954.1441024 416 1016 416 C 1077.8558976 416 1128 423.6111584 1128 433 C 1128 442.3888416 1077.8558976 450 1016 450 C 954.1441024 450 904 442.3888416 904 433 Z" stroke-miterlimit="10"/></g><g transform="translate(2,-70) scale(1,1)"><g><path fill="none" stroke="none"/><text fill="#000000" stroke="none" font-family="Arial" font-size="13px" font-style="normal" font-weight="bold" text-decoration="none" x="944.10009765625" y="440">CU33 - Ordenar Bandeja</text></g></g><g transform="translate(2,-70) scale(1,1)"><path fill="none" stroke="#000000" d="M 935 336 L 1001 415" stroke-miterlimit="10" stroke-dasharray="3"/></g><g transform="translate(2,-70) scale(1,1)"><path fill="none" stroke="#000000" d="M 991.2538219175457 409.89980267194625 L 1001 415 L 997.7147955033012 404.5020272711885" stroke-miterlimit="10"/></g><g transform="translate(2,-70) scale(1,1)"><g><path fill="none" stroke="none"/><text fill="#000000" stroke="none" font-family="Arial" font-size="13px" font-style="normal" font-weight="normal" text-decoration="none" x="961.5" y="375.5">«extend»</text></g></g><g transform="translate(2,-70) scale(1,1)"><path fill="none" stroke="#000000" d="M 1343 366 L 1104 415" stroke-miterlimit="10"/></g></g></svg>