<svg version="1.1" xmlns="http://www.w3.org/2000/svg" xmlns:xlink="http://www.w3.org/1999/xlink" width="1275.130859375" height="788"><defs/><g><g transform="translate(-38,-54) scale(1,1)"><path fill="none" stroke="#000000" d="M 200 64 L 1192 64 L 1192 832 L 200 832 L 200 64" stroke-miterlimit="10"/></g><g transform="translate(-38,-54) scale(1,1)"><path fill="#ffffff" stroke="none" d="M 200 64 L 200 86 L 367.02978515625 86 L 378.02978515625 75 L 378.02978515625 64 L 200 64"/></g><g transform="translate(-38,-54) scale(1,1)"><path fill="none" stroke="#000000" d="M 200 64 L 200 86 L 367.02978515625 86 L 378.02978515625 75 L 378.02978515625 64 L 200 64 L 200 64" stroke-miterlimit="10"/></g><g transform="translate(-38,-54) scale(1,1)"><g><path fill="none" stroke="none"/><text fill="#000000" stroke="none" font-family="Arial" font-size="13px" font-style="normal" font-weight="normal" text-decoration="none" x="263.03173828125" y="81.5">Modulo Reportes</text></g></g><g transform="translate(-38,-54) scale(1,1)"><g><path fill="none" stroke="none"/><text fill="#000000" stroke="none" font-family="Arial" font-size="13px" font-style="normal" font-weight="bold" text-decoration="none" x="205" y="81.5">use case</text></g></g><g transform="translate(-38,-54) scale(1,1)"><path fill="#ffffff" stroke="none" d="M 128.24162571022728 153.68 C 128.24162571022728 148.886167936 132.12746803517274 145 136.9208984375 145 C 141.71432883982726 145 145.60017116477272 148.886167936 145.60017116477272 153.68 C 145.60017116477272 158.47383206400002 141.71432883982726 162.36 136.9208984375 162.36 C 132.12746803517274 162.36 128.24162571022728 158.47383206400002 128.24162571022728 153.68 Z"/></g><g transform="translate(-38,-54) scale(1,1)"><path fill="none" stroke="#000000" d="M 128.24162571022728 153.68 C 128.24162571022728 148.886167936 132.12746803517274 145 136.9208984375 145 C 141.71432883982726 145 145.60017116477272 148.886167936 145.60017116477272 153.68 C 145.60017116477272 158.47383206400002 141.71432883982726 162.36 136.9208984375 162.36 C 132.12746803517274 162.36 128.24162571022728 158.47383206400002 128.24162571022728 153.68 Z" stroke-miterlimit="10"/></g><g transform="translate(-38,-54) scale(1,1)"><path fill="none" stroke="#000000" d="M 136.9208984375 162.36 L 136.9208984375 179.64" stroke-miterlimit="10"/></g><g transform="translate(-38,-54) scale(1,1)"><path fill="none" stroke="#000000" d="M 127.73108025568183 168.84 L 146.11071661931817 168.84" stroke-miterlimit="10"/></g><g transform="translate(-38,-54) scale(1,1)"><path fill="none" stroke="#000000" d="M 136.9208984375 179.64 L 124.15726207386365 197" stroke-miterlimit="10"/></g><g transform="translate(-38,-54) scale(1,1)"><path fill="none" stroke="#000000" d="M 136.9208984375 179.64 L 149.68453480113635 197" stroke-miterlimit="10"/></g><g transform="translate(-38,-54) scale(1,1)"><g><path fill="none" stroke="none"/><text fill="#000000" stroke="none" font-family="Arial" font-size="13px" font-style="normal" font-weight="bold" text-decoration="none" x="96.82275390625" y="217.5">Administrador</text></g></g><g transform="translate(-38,-54) scale(1,1)"><path fill="#ffffff" stroke="none" d="M 114.61296360085228 409.68 C 114.61296360085228 404.886167936 118.49880592579774 401 123.292236328125 401 C 128.08566673045226 401 131.97150905539772 404.886167936 131.97150905539772 409.68 C 131.97150905539772 414.473832064 128.08566673045226 418.36 123.292236328125 418.36 C 118.49880592579774 418.36 114.61296360085228 414.473832064 114.61296360085228 409.68 Z"/></g><g transform="translate(-38,-54) scale(1,1)"><path fill="none" stroke="#000000" d="M 114.61296360085228 409.68 C 114.61296360085228 404.886167936 118.49880592579774 401 123.292236328125 401 C 128.08566673045226 401 131.97150905539772 404.886167936 131.97150905539772 409.68 C 131.97150905539772 414.473832064 128.08566673045226 418.36 123.292236328125 418.36 C 118.49880592579774 418.36 114.61296360085228 414.473832064 114.61296360085228 409.68 Z" stroke-miterlimit="10"/></g><g transform="translate(-38,-54) scale(1,1)"><path fill="none" stroke="#000000" d="M 123.292236328125 418.36 L 123.292236328125 435.64" stroke-miterlimit="10"/></g><g transform="translate(-38,-54) scale(1,1)"><path fill="none" stroke="#000000" d="M 114.10241814630683 424.84 L 132.48205450994317 424.84" stroke-miterlimit="10"/></g><g transform="translate(-38,-54) scale(1,1)"><path fill="none" stroke="#000000" d="M 123.292236328125 435.64 L 110.52859996448865 453" stroke-miterlimit="10"/></g><g transform="translate(-38,-54) scale(1,1)"><path fill="none" stroke="#000000" d="M 123.292236328125 435.64 L 136.05587269176135 453" stroke-miterlimit="10"/></g><g transform="translate(-38,-54) scale(1,1)"><g><path fill="none" stroke="none"/><text fill="#000000" stroke="none" font-family="Arial" font-size="13px" font-style="normal" font-weight="bold" text-decoration="none" x="58.628662109375" y="473.5">Administrador Porteria</text></g></g><g transform="translate(-38,-54) scale(1,1)"><path fill="#ffffff" stroke="none" d="M 1258.8861569602273 281.68 C 1258.8861569602273 276.886167936 1262.7719992851728 273 1267.5654296875 273 C 1272.3588600898272 273 1276.2447024147727 276.886167936 1276.2447024147727 281.68 C 1276.2447024147727 286.473832064 1272.3588600898272 290.36 1267.5654296875 290.36 C 1262.7719992851728 290.36 1258.8861569602273 286.473832064 1258.8861569602273 281.68 Z"/></g><g transform="translate(-38,-54) scale(1,1)"><path fill="none" stroke="#000000" d="M 1258.8861569602273 281.68 C 1258.8861569602273 276.886167936 1262.7719992851728 273 1267.5654296875 273 C 1272.3588600898272 273 1276.2447024147727 276.886167936 1276.2447024147727 281.68 C 1276.2447024147727 286.473832064 1272.3588600898272 290.36 1267.5654296875 290.36 C 1262.7719992851728 290.36 1258.8861569602273 286.473832064 1258.8861569602273 281.68 Z" stroke-miterlimit="10"/></g><g transform="translate(-38,-54) scale(1,1)"><path fill="none" stroke="#000000" d="M 1267.5654296875 290.36 L 1267.5654296875 307.64" stroke-miterlimit="10"/></g><g transform="translate(-38,-54) scale(1,1)"><path fill="none" stroke="#000000" d="M 1258.3756115056817 296.84 L 1276.7552478693183 296.84" stroke-miterlimit="10"/></g><g transform="translate(-38,-54) scale(1,1)"><path fill="none" stroke="#000000" d="M 1267.5654296875 307.64 L 1254.8017933238636 325" stroke-miterlimit="10"/></g><g transform="translate(-38,-54) scale(1,1)"><path fill="none" stroke="#000000" d="M 1267.5654296875 307.64 L 1280.3290660511364 325" stroke-miterlimit="10"/></g><g transform="translate(-38,-54) scale(1,1)"><g><path fill="none" stroke="none"/><text fill="#000000" stroke="none" font-family="Arial" font-size="13px" font-style="normal" font-weight="bold" text-decoration="none" x="1238.29638671875" y="345.5">Residente</text></g></g><g transform="translate(-38,-54) scale(1,1)"><path fill="#C0C0C0" stroke="none" d="M 535 155 C 535 143.954304 606.8582896 135 695.5 135 C 784.1417104 135 856 143.954304 856 155 C 856 166.045696 784.1417104 175 695.5 175 C 606.8582896 175 535 166.045696 535 155 Z" opacity="0.2"/></g><g transform="translate(-38,-54) scale(1,1)"><path fill="#ffffff" stroke="none" d="M 528 148 C 528 136.954304 599.8582896 128 688.5 128 C 777.1417104 128 849 136.954304 849 148 C 849 159.045696 777.1417104 168 688.5 168 C 599.8582896 168 528 159.045696 528 148 Z"/></g><g transform="translate(-38,-54) scale(1,1)"><path fill="none" stroke="#000000" d="M 528 148 C 528 136.954304 599.8582896 128 688.5 128 C 777.1417104 128 849 136.954304 849 148 C 849 159.045696 777.1417104 168 688.5 168 C 599.8582896 168 528 159.045696 528 148 Z" stroke-miterlimit="10"/></g><g transform="translate(-38,-54) scale(1,1)"><g><path fill="none" stroke="none"/><text fill="#000000" stroke="none" font-family="Arial" font-size="13px" font-style="normal" font-weight="bold" text-decoration="none" x="585.277587890625" y="155">CU11 - Ver asignación parqueadero</text></g></g><g transform="translate(-38,-54) scale(1,1)"><path fill="none" stroke="#000000" d="M 187 180 L 527 158" stroke-miterlimit="10"/></g><g transform="translate(-38,-54) scale(1,1)"><path fill="#C0C0C0" stroke="none" d="M 479 359 C 479 345.7451648 554.8877264 335 648.5 335 C 742.1122736 335 818 345.7451648 818 359 C 818 372.2548352 742.1122736 383 648.5 383 C 554.8877264 383 479 372.2548352 479 359 Z" opacity="0.2"/></g><g transform="translate(-38,-54) scale(1,1)"><path fill="#ffffff" stroke="none" d="M 472 352 C 472 338.7451648 547.8877264 328 641.5 328 C 735.1122736 328 811 338.7451648 811 352 C 811 365.2548352 735.1122736 376 641.5 376 C 547.8877264 376 472 365.2548352 472 352 Z"/></g><g transform="translate(-38,-54) scale(1,1)"><path fill="none" stroke="#000000" d="M 472 352 C 472 338.7451648 547.8877264 328 641.5 328 C 735.1122736 328 811 338.7451648 811 352 C 811 365.2548352 735.1122736 376 641.5 376 C 547.8877264 376 472 365.2548352 472 352 Z" stroke-miterlimit="10"/></g><g transform="translate(-38,-54) scale(1,1)"><g><path fill="none" stroke="none"/><text fill="#000000" stroke="none" font-family="Arial" font-size="13px" font-style="normal" font-weight="bold" text-decoration="none" x="530.939697265625" y="359">CU12 - Generar Reporte Parqueadero</text></g></g><g transform="translate(-38,-54) scale(1,1)"><path fill="none" stroke="#000000" d="M 187 200 L 566 327" stroke-miterlimit="10"/></g><g transform="translate(-38,-54) scale(1,1)"><path fill="#C0C0C0" stroke="none" d="M 615 647 C 615 633.7451648 681.7095648 623 764 623 C 846.2904352 623 913 633.7451648 913 647 C 913 660.2548352 846.2904352 671 764 671 C 681.7095648 671 615 660.2548352 615 647 Z" opacity="0.2"/></g><g transform="translate(-38,-54) scale(1,1)"><path fill="#ffffff" stroke="none" d="M 608 640 C 608 626.7451648 674.7095648 616 757 616 C 839.2904352 616 906 626.7451648 906 640 C 906 653.2548352 839.2904352 664 757 664 C 674.7095648 664 608 653.2548352 608 640 Z"/></g><g transform="translate(-38,-54) scale(1,1)"><path fill="none" stroke="#000000" d="M 608 640 C 608 626.7451648 674.7095648 616 757 616 C 839.2904352 616 906 626.7451648 906 640 C 906 653.2548352 839.2904352 664 757 664 C 674.7095648 664 608 653.2548352 608 640 Z" stroke-miterlimit="10"/></g><g transform="translate(-38,-54) scale(1,1)"><g><path fill="none" stroke="none"/><text fill="#000000" stroke="none" font-family="Arial" font-size="13px" font-style="normal" font-weight="bold" text-decoration="none" x="660.899658203125" y="647">CU13 - Generar Certificado Pago</text></g></g><g transform="translate(-38,-54) scale(1,1)"><path fill="none" stroke="#000000" d="M 1231 334 L 796 615" stroke-miterlimit="10"/></g><g transform="translate(-38,-54) scale(1,1)"><path fill="none" stroke="#000000" d="M 200 400 L 647 169" stroke-miterlimit="10"/></g><g transform="translate(-38,-54) scale(1,1)"><path fill="#C0C0C0" stroke="none" d="M 335 488 C 335 478.6111584 396.3369824 471 472 471 C 547.6630176 471 609 478.6111584 609 488 C 609 497.3888416 547.6630176 505 472 505 C 396.3369824 505 335 497.3888416 335 488 Z" opacity="0.2"/></g><g transform="translate(-38,-54) scale(1,1)"><path fill="#ffffff" stroke="none" d="M 328 481 C 328 471.6111584 389.3369824 464 465 464 C 540.6630176 464 602 471.6111584 602 481 C 602 490.3888416 540.6630176 498 465 498 C 389.3369824 498 328 490.3888416 328 481 Z"/></g><g transform="translate(-38,-54) scale(1,1)"><path fill="none" stroke="#000000" d="M 328 481 C 328 471.6111584 389.3369824 464 465 464 C 540.6630176 464 602 471.6111584 602 481 C 602 490.3888416 540.6630176 498 465 498 C 389.3369824 498 328 490.3888416 328 481 Z" stroke-miterlimit="10"/></g><g transform="translate(-38,-54) scale(1,1)"><g><path fill="none" stroke="none"/><text fill="#000000" stroke="none" font-family="Arial" font-size="13px" font-style="normal" font-weight="bold" text-decoration="none" x="376.1201171875" y="488">CU34 - Elegir Rango de Fecha</text></g></g><g transform="translate(-38,-54) scale(1,1)"><path fill="none" stroke="#000000" d="M 607 377 L 490 463" stroke-miterlimit="10" stroke-dasharray="3"/></g><g transform="translate(-38,-54) scale(1,1)"><path fill="none" stroke="#000000" d="M 495.69542694220814 453.5892555052233 L 490 463 L 500.6816762608585 460.37287376431743" stroke-miterlimit="10"/></g><g transform="translate(-38,-54) scale(1,1)"><g><path fill="none" stroke="none"/><text fill="#000000" stroke="none" font-family="Arial" font-size="13px" font-style="normal" font-weight="normal" text-decoration="none" x="543.5" y="439.5">«extend»</text></g></g><g transform="translate(-38,-54) scale(1,1)"><path fill="#C0C0C0" stroke="none" d="M 591 528 C 591 518.6111584 649.8745488 511 722.5 511 C 795.1254512 511 854 518.6111584 854 528 C 854 537.3888416 795.1254512 545 722.5 545 C 649.8745488 545 591 537.3888416 591 528 Z" opacity="0.2"/></g><g transform="translate(-38,-54) scale(1,1)"><path fill="#ffffff" stroke="none" d="M 584 521 C 584 511.6111584 642.8745488 504 715.5 504 C 788.1254512 504 847 511.6111584 847 521 C 847 530.3888416 788.1254512 538 715.5 538 C 642.8745488 538 584 530.3888416 584 521 Z"/></g><g transform="translate(-38,-54) scale(1,1)"><path fill="none" stroke="#000000" d="M 584 521 C 584 511.6111584 642.8745488 504 715.5 504 C 788.1254512 504 847 511.6111584 847 521 C 847 530.3888416 788.1254512 538 715.5 538 C 642.8745488 538 584 530.3888416 584 521 Z" stroke-miterlimit="10"/></g><g transform="translate(-38,-54) scale(1,1)"><g><path fill="none" stroke="none"/><text fill="#000000" stroke="none" font-family="Arial" font-size="13px" font-style="normal" font-weight="bold" text-decoration="none" x="630.596923828125" y="528">CU35 - Elegir Rango de Hora</text></g></g><g transform="translate(-38,-54) scale(1,1)"><path fill="none" stroke="#000000" d="M 652 377 L 707 503" stroke-miterlimit="10" stroke-dasharray="3"/></g><g transform="translate(-38,-54) scale(1,1)"><path fill="none" stroke="#000000" d="M 699.0763808434682 495.3700419750668 L 707 503 L 706.7923502224758 492.0019601032778" stroke-miterlimit="10"/></g><g transform="translate(-38,-54) scale(1,1)"><g><path fill="none" stroke="none"/><text fill="#000000" stroke="none" font-family="Arial" font-size="13px" font-style="normal" font-weight="normal" text-decoration="none" x="679.5" y="433.5">«extend»</text></g></g><g transform="translate(-38,-54) scale(1,1)"><path fill="#C0C0C0" stroke="none" d="M 799 448 C 799 438.6111584 845.1146656 431 902 431 C 958.8853344 431 1005 438.6111584 1005 448 C 1005 457.3888416 958.8853344 465 902 465 C 845.1146656 465 799 457.3888416 799 448 Z" opacity="0.2"/></g><g transform="translate(-38,-54) scale(1,1)"><path fill="#ffffff" stroke="none" d="M 792 441 C 792 431.6111584 838.1146656 424 895 424 C 951.8853344 424 998 431.6111584 998 441 C 998 450.3888416 951.8853344 458 895 458 C 838.1146656 458 792 450.3888416 792 441 Z"/></g><g transform="translate(-38,-54) scale(1,1)"><path fill="none" stroke="#000000" d="M 792 441 C 792 431.6111584 838.1146656 424 895 424 C 951.8853344 424 998 431.6111584 998 441 C 998 450.3888416 951.8853344 458 895 458 C 838.1146656 458 792 450.3888416 792 441 Z" stroke-miterlimit="10"/></g><g transform="translate(-38,-54) scale(1,1)"><g><path fill="none" stroke="none"/><text fill="#000000" stroke="none" font-family="Arial" font-size="13px" font-style="normal" font-weight="bold" text-decoration="none" x="829.98095703125" y="448">CU36 - Elegir Formato</text></g></g><g transform="translate(-38,-54) scale(1,1)"><path fill="none" stroke="#000000" d="M 712 377 L 844 423" stroke-miterlimit="10" stroke-dasharray="3"/></g><g transform="translate(-38,-54) scale(1,1)"><path fill="none" stroke="#000000" d="M 833.0181002432421 423.63077550088786 L 844 423 L 835.7885985776014 415.6806498457697" stroke-miterlimit="10"/></g><g transform="translate(-38,-54) scale(1,1)"><g><path fill="none" stroke="none"/><text fill="#000000" stroke="none" font-family="Arial" font-size="13px" font-style="normal" font-weight="normal" text-decoration="none" x="774.5" y="392.5">«extend»</text></g></g><g transform="translate(-38,-54) scale(1,1)"><path fill="#C0C0C0" stroke="none" d="M 455 728 C 455 718.6111584 492.6080768 711 539 711 C 585.3919232 711 623 718.6111584 623 728 C 623 737.3888416 585.3919232 745 539 745 C 492.6080768 745 455 737.3888416 455 728 Z" opacity="0.2"/></g><g transform="translate(-38,-54) scale(1,1)"><path fill="#ffffff" stroke="none" d="M 448 721 C 448 711.6111584 485.6080768 704 532 704 C 578.3919232 704 616 711.6111584 616 721 C 616 730.3888416 578.3919232 738 532 738 C 485.6080768 738 448 730.3888416 448 721 Z"/></g><g transform="translate(-38,-54) scale(1,1)"><path fill="none" stroke="#000000" d="M 448 721 C 448 711.6111584 485.6080768 704 532 704 C 578.3919232 704 616 711.6111584 616 721 C 616 730.3888416 578.3919232 738 532 738 C 485.6080768 738 448 730.3888416 448 721 Z" stroke-miterlimit="10"/></g><g transform="translate(-38,-54) scale(1,1)"><g><path fill="none" stroke="none"/><text fill="#000000" stroke="none" font-family="Arial" font-size="13px" font-style="normal" font-weight="bold" text-decoration="none" x="479.615966796875" y="728">CU37 - Elegir Año</text></g></g><g transform="translate(-38,-54) scale(1,1)"><path fill="none" stroke="#000000" d="M 688 665 L 582 703" stroke-miterlimit="10" stroke-dasharray="3"/></g><g transform="translate(-38,-54) scale(1,1)"><path fill="none" stroke="#000000" d="M 590.1459769783459 695.6079056372189 L 582 703 L 592.9870756118712 703.5330755096844" stroke-miterlimit="10"/></g><g transform="translate(-38,-54) scale(1,1)"><g><path fill="none" stroke="none"/><text fill="#000000" stroke="none" font-family="Arial" font-size="13px" font-style="normal" font-weight="normal" text-decoration="none" x="631.5" y="699.5">«extend»</text></g></g><g transform="translate(-38,-54) scale(1,1)"><path fill="#C0C0C0" stroke="none" d="M 759 736 C 759 726.6111584 796.6080768 719 843 719 C 889.3919232 719 927 726.6111584 927 736 C 927 745.3888416 889.3919232 753 843 753 C 796.6080768 753 759 745.3888416 759 736 Z" opacity="0.2"/></g><g transform="translate(-38,-54) scale(1,1)"><path fill="#ffffff" stroke="none" d="M 752 729 C 752 719.6111584 789.6080768 712 836 712 C 882.3919232 712 920 719.6111584 920 729 C 920 738.3888416 882.3919232 746 836 746 C 789.6080768 746 752 738.3888416 752 729 Z"/></g><g transform="translate(-38,-54) scale(1,1)"><path fill="none" stroke="#000000" d="M 752 729 C 752 719.6111584 789.6080768 712 836 712 C 882.3919232 712 920 719.6111584 920 729 C 920 738.3888416 882.3919232 746 836 746 C 789.6080768 746 752 738.3888416 752 729 Z" stroke-miterlimit="10"/></g><g transform="translate(-38,-54) scale(1,1)"><g><path fill="none" stroke="none"/><text fill="#000000" stroke="none" font-family="Arial" font-size="13px" font-style="normal" font-weight="bold" text-decoration="none" x="782.90185546875" y="736">CU38 - Elegir Mes</text></g></g><g transform="translate(-38,-54) scale(1,1)"><path fill="none" stroke="#000000" d="M 779 665 L 820 711" stroke-miterlimit="10" stroke-dasharray="3"/></g><g transform="translate(-38,-54) scale(1,1)"><path fill="none" stroke="#000000" d="M 810.0955948248533 706.2143173813419 L 820 711 L 816.3805165692943 700.6125393047748" stroke-miterlimit="10"/></g><g transform="translate(-38,-54) scale(1,1)"><g><path fill="none" stroke="none"/><text fill="#000000" stroke="none" font-family="Arial" font-size="13px" font-style="normal" font-weight="normal" text-decoration="none" x="794.5" y="684.5">«extend»</text></g></g><g transform="translate(-38,-54) scale(1,1)"><path fill="#C0C0C0" stroke="none" d="M 799 264 C 799 254.6111584 876.0070144 247 971 247 C 1065.9929855999999 247 1143 254.6111584 1143 264 C 1143 273.3888416 1065.9929855999999 281 971 281 C 876.0070144 281 799 273.3888416 799 264 Z" opacity="0.2"/></g><g transform="translate(-38,-54) scale(1,1)"><path fill="#ffffff" stroke="none" d="M 792 257 C 792 247.6111584 869.0070144 240 964 240 C 1058.9929855999999 240 1136 247.6111584 1136 257 C 1136 266.3888416 1058.9929855999999 274 964 274 C 869.0070144 274 792 266.3888416 792 257 Z"/></g><g transform="translate(-38,-54) scale(1,1)"><path fill="none" stroke="#000000" d="M 792 257 C 792 247.6111584 869.0070144 240 964 240 C 1058.9929855999999 240 1136 247.6111584 1136 257 C 1136 266.3888416 1058.9929855999999 274 964 274 C 869.0070144 274 792 266.3888416 792 257 Z" stroke-miterlimit="10"/></g><g transform="translate(-38,-54) scale(1,1)"><g><path fill="none" stroke="none"/><text fill="#000000" stroke="none" font-family="Arial" font-size="13px" font-style="normal" font-weight="bold" text-decoration="none" x="853.79833984375" y="264">CU39 - Ver Disponibilidad Parquadero</text></g></g><g transform="translate(-38,-54) scale(1,1)"><path fill="#C0C0C0" stroke="none" d="M 455 264 C 455 254.6111584 527.0821472 247 616 247 C 704.9178528 247 777 254.6111584 777 264 C 777 273.3888416 704.9178528 281 616 281 C 527.0821472 281 455 273.3888416 455 264 Z" opacity="0.2"/></g><g transform="translate(-38,-54) scale(1,1)"><path fill="#ffffff" stroke="none" d="M 448 257 C 448 247.6111584 520.0821472 240 609 240 C 697.9178528 240 770 247.6111584 770 257 C 770 266.3888416 697.9178528 274 609 274 C 520.0821472 274 448 266.3888416 448 257 Z"/></g><g transform="translate(-38,-54) scale(1,1)"><path fill="none" stroke="#000000" d="M 448 257 C 448 247.6111584 520.0821472 240 609 240 C 697.9178528 240 770 247.6111584 770 257 C 770 266.3888416 697.9178528 274 609 274 C 520.0821472 274 448 266.3888416 448 257 Z" stroke-miterlimit="10"/></g><g transform="translate(-38,-54) scale(1,1)"><g><path fill="none" stroke="none"/><text fill="#000000" stroke="none" font-family="Arial" font-size="13px" font-style="normal" font-weight="bold" text-decoration="none" x="504.577880859375" y="264">CU40 - Ver Ocupación Parqueadero</text></g></g><g transform="translate(-38,-54) scale(1,1)"><path fill="none" stroke="#000000" d="M 673 169 L 622 239" stroke-miterlimit="10" stroke-dasharray="3"/></g><g transform="translate(-38,-54) scale(1,1)"><path fill="none" stroke="#000000" d="M 624.5820866992229 228.30734699535722 L 622 239 L 631.3866584630897 233.2649635661745" stroke-miterlimit="10"/></g><g transform="translate(-38,-54) scale(1,1)"><g><path fill="none" stroke="none"/><text fill="#000000" stroke="none" font-family="Arial" font-size="13px" font-style="normal" font-weight="normal" text-decoration="none" x="643.5" y="227.5">«include»</text></g></g><g transform="translate(-38,-54) scale(1,1)"><path fill="none" stroke="#000000" d="M 741 169 L 918 239" stroke-miterlimit="10" stroke-dasharray="3"/></g><g transform="translate(-38,-54) scale(1,1)"><path fill="none" stroke="#000000" d="M 907.0014247607982 239.17703871784244 L 918 239 L 910.0976475870509 231.34801814288883" stroke-miterlimit="10"/></g><g transform="translate(-38,-54) scale(1,1)"><g><path fill="none" stroke="none"/><text fill="#000000" stroke="none" font-family="Arial" font-size="13px" font-style="normal" font-weight="normal" text-decoration="none" x="825.5" y="202.5">«include»</text></g></g></g></svg>