<svg version="1.1" xmlns="http://www.w3.org/2000/svg" xmlns:xlink="http://www.w3.org/1999/xlink" width="803.130859375" height="588"><defs/><g><g transform="translate(-6,-134) scale(1,1)"><path fill="none" stroke="#000000" d="M 184 144 L 680 144 L 680 712 L 184 712 L 184 144" stroke-miterlimit="10"/></g><g transform="translate(-6,-134) scale(1,1)"><path fill="#ffffff" stroke="none" d="M 184 144 L 184 166 L 349.576171875 166 L 360.576171875 155 L 360.576171875 144 L 184 144"/></g><g transform="translate(-6,-134) scale(1,1)"><path fill="none" stroke="#000000" d="M 184 144 L 184 166 L 349.576171875 166 L 360.576171875 155 L 360.576171875 144 L 184 144 L 184 144" stroke-miterlimit="10"/></g><g transform="translate(-6,-134) scale(1,1)"><g><path fill="none" stroke="none"/><text fill="#000000" stroke="none" font-family="Arial" font-size="13px" font-style="normal" font-weight="normal" text-decoration="none" x="247.03173828125" y="161.5">Modulo Usuarios</text></g></g><g transform="translate(-6,-134) scale(1,1)"><g><path fill="none" stroke="none"/><text fill="#000000" stroke="none" font-family="Arial" font-size="13px" font-style="normal" font-weight="bold" text-decoration="none" x="189" y="161.5">use case</text></g></g><g transform="translate(-6,-134) scale(1,1)"><path fill="#ffffff" stroke="none" d="M 64.24162571022727 553.6800000000001 C 64.24162571022727 548.8861679360001 68.12746803517273 545 72.9208984375 545 C 77.71432883982727 545 81.60017116477273 548.8861679360001 81.60017116477273 553.6800000000001 C 81.60017116477273 558.473832064 77.71432883982727 562.36 72.9208984375 562.36 C 68.12746803517273 562.36 64.24162571022727 558.473832064 64.24162571022727 553.6800000000001 Z"/></g><g transform="translate(-6,-134) scale(1,1)"><path fill="none" stroke="#000000" d="M 64.24162571022727 553.6800000000001 C 64.24162571022727 548.8861679360001 68.12746803517273 545 72.9208984375 545 C 77.71432883982727 545 81.60017116477273 548.8861679360001 81.60017116477273 553.6800000000001 C 81.60017116477273 558.473832064 77.71432883982727 562.36 72.9208984375 562.36 C 68.12746803517273 562.36 64.24162571022727 558.473832064 64.24162571022727 553.6800000000001 Z" stroke-miterlimit="10"/></g><g transform="translate(-6,-134) scale(1,1)"><path fill="none" stroke="#000000" d="M 72.9208984375 562.36 L 72.9208984375 579.64" stroke-miterlimit="10"/></g><g transform="translate(-6,-134) scale(1,1)"><path fill="none" stroke="#000000" d="M 63.73108025568182 568.84 L 82.11071661931818 568.84" stroke-miterlimit="10"/></g><g transform="translate(-6,-134) scale(1,1)"><path fill="none" stroke="#000000" d="M 72.9208984375 579.64 L 60.157262073863635 597" stroke-miterlimit="10"/></g><g transform="translate(-6,-134) scale(1,1)"><path fill="none" stroke="#000000" d="M 72.9208984375 579.64 L 85.68453480113637 597" stroke-miterlimit="10"/></g><g transform="translate(-6,-134) scale(1,1)"><g><path fill="none" stroke="none"/><text fill="#000000" stroke="none" font-family="Arial" font-size="13px" font-style="normal" font-weight="bold" text-decoration="none" x="32.82275390625" y="617.5">Administrador</text></g></g><g transform="translate(-6,-134) scale(1,1)"><path fill="#ffffff" stroke="none" d="M 82.61296360085227 273.68 C 82.61296360085227 268.886167936 86.49880592579773 265 91.292236328125 265 C 96.08566673045227 265 99.97150905539773 268.886167936 99.97150905539773 273.68 C 99.97150905539773 278.473832064 96.08566673045227 282.36 91.292236328125 282.36 C 86.49880592579773 282.36 82.61296360085227 278.473832064 82.61296360085227 273.68 Z"/></g><g transform="translate(-6,-134) scale(1,1)"><path fill="none" stroke="#000000" d="M 82.61296360085227 273.68 C 82.61296360085227 268.886167936 86.49880592579773 265 91.292236328125 265 C 96.08566673045227 265 99.97150905539773 268.886167936 99.97150905539773 273.68 C 99.97150905539773 278.473832064 96.08566673045227 282.36 91.292236328125 282.36 C 86.49880592579773 282.36 82.61296360085227 278.473832064 82.61296360085227 273.68 Z" stroke-miterlimit="10"/></g><g transform="translate(-6,-134) scale(1,1)"><path fill="none" stroke="#000000" d="M 91.292236328125 282.36 L 91.292236328125 299.64" stroke-miterlimit="10"/></g><g transform="translate(-6,-134) scale(1,1)"><path fill="none" stroke="#000000" d="M 82.10241814630682 288.84 L 100.48205450994318 288.84" stroke-miterlimit="10"/></g><g transform="translate(-6,-134) scale(1,1)"><path fill="none" stroke="#000000" d="M 91.292236328125 299.64 L 78.52859996448863 317" stroke-miterlimit="10"/></g><g transform="translate(-6,-134) scale(1,1)"><path fill="none" stroke="#000000" d="M 91.292236328125 299.64 L 104.05587269176137 317" stroke-miterlimit="10"/></g><g transform="translate(-6,-134) scale(1,1)"><g><path fill="none" stroke="none"/><text fill="#000000" stroke="none" font-family="Arial" font-size="13px" font-style="normal" font-weight="bold" text-decoration="none" x="26.628662109375" y="337.5">Administrador Porteria</text></g></g><g transform="translate(-6,-134) scale(1,1)"><path fill="#ffffff" stroke="none" d="M 754.8861569602273 225.68 C 754.8861569602273 220.886167936 758.7719992851727 217 763.5654296875 217 C 768.3588600898273 217 772.2447024147727 220.886167936 772.2447024147727 225.68 C 772.2447024147727 230.47383206400002 768.3588600898273 234.36 763.5654296875 234.36 C 758.7719992851727 234.36 754.8861569602273 230.47383206400002 754.8861569602273 225.68 Z"/></g><g transform="translate(-6,-134) scale(1,1)"><path fill="none" stroke="#000000" d="M 754.8861569602273 225.68 C 754.8861569602273 220.886167936 758.7719992851727 217 763.5654296875 217 C 768.3588600898273 217 772.2447024147727 220.886167936 772.2447024147727 225.68 C 772.2447024147727 230.47383206400002 768.3588600898273 234.36 763.5654296875 234.36 C 758.7719992851727 234.36 754.8861569602273 230.47383206400002 754.8861569602273 225.68 Z" stroke-miterlimit="10"/></g><g transform="translate(-6,-134) scale(1,1)"><path fill="none" stroke="#000000" d="M 763.5654296875 234.36 L 763.5654296875 251.64" stroke-miterlimit="10"/></g><g transform="translate(-6,-134) scale(1,1)"><path fill="none" stroke="#000000" d="M 754.3756115056818 240.84 L 772.7552478693182 240.84" stroke-miterlimit="10"/></g><g transform="translate(-6,-134) scale(1,1)"><path fill="none" stroke="#000000" d="M 763.5654296875 251.64 L 750.8017933238636 269" stroke-miterlimit="10"/></g><g transform="translate(-6,-134) scale(1,1)"><path fill="none" stroke="#000000" d="M 763.5654296875 251.64 L 776.3290660511364 269" stroke-miterlimit="10"/></g><g transform="translate(-6,-134) scale(1,1)"><g><path fill="none" stroke="none"/><text fill="#000000" stroke="none" font-family="Arial" font-size="13px" font-style="normal" font-weight="bold" text-decoration="none" x="734.29638671875" y="289.5">Residente</text></g></g><g transform="translate(-6,-134) scale(1,1)"><path fill="#C0C0C0" stroke="none" d="M 303 200 C 303 190.6111584 346.8760896 183 401 183 C 455.1239104 183 499 190.6111584 499 200 C 499 209.3888416 455.1239104 217 401 217 C 346.8760896 217 303 209.3888416 303 200 Z" opacity="0.2"/></g><g transform="translate(-6,-134) scale(1,1)"><path fill="#ffffff" stroke="none" d="M 296 193 C 296 183.6111584 339.8760896 176 394 176 C 448.1239104 176 492 183.6111584 492 193 C 492 202.3888416 448.1239104 210 394 210 C 339.8760896 210 296 202.3888416 296 193 Z"/></g><g transform="translate(-6,-134) scale(1,1)"><path fill="none" stroke="#000000" d="M 296 193 C 296 183.6111584 339.8760896 176 394 176 C 448.1239104 176 492 183.6111584 492 193 C 492 202.3888416 448.1239104 210 394 210 C 339.8760896 210 296 202.3888416 296 193 Z" stroke-miterlimit="10"/></g><g transform="translate(-6,-134) scale(1,1)"><g><path fill="none" stroke="none"/><text fill="#000000" stroke="none" font-family="Arial" font-size="13px" font-style="normal" font-weight="bold" text-decoration="none" x="332.58642578125" y="200">CU01 - Iniciar Sesión</text></g></g><g transform="translate(-6,-134) scale(1,1)"><path fill="none" stroke="#000000" d="M 105 543 L 379 211" stroke-miterlimit="10"/></g><g transform="translate(-6,-134) scale(1,1)"><path fill="#C0C0C0" stroke="none" d="M 391 347 C 391 335.954304 430.6227952 327 479.5 327 C 528.3772048 327 568 335.954304 568 347 C 568 358.045696 528.3772048 367 479.5 367 C 430.6227952 367 391 358.045696 391 347 Z" opacity="0.2"/></g><g transform="translate(-6,-134) scale(1,1)"><path fill="#ffffff" stroke="none" d="M 384 340 C 384 328.954304 423.6227952 320 472.5 320 C 521.3772048 320 561 328.954304 561 340 C 561 351.045696 521.3772048 360 472.5 360 C 423.6227952 360 384 351.045696 384 340 Z"/></g><g transform="translate(-6,-134) scale(1,1)"><path fill="none" stroke="#000000" d="M 384 340 C 384 328.954304 423.6227952 320 472.5 320 C 521.3772048 320 561 328.954304 561 340 C 561 351.045696 521.3772048 360 472.5 360 C 423.6227952 360 384 351.045696 384 340 Z" stroke-miterlimit="10"/></g><g transform="translate(-6,-134) scale(1,1)"><g><path fill="none" stroke="none"/><text fill="#000000" stroke="none" font-family="Arial" font-size="13px" font-style="normal" font-weight="bold" text-decoration="none" x="416.872314453125" y="347">CU02 - Registrarse</text></g></g><g transform="translate(-6,-134) scale(1,1)"><path fill="none" stroke="#000000" d="M 123 552 L 437 361" stroke-miterlimit="10"/></g><g transform="translate(-6,-134) scale(1,1)"><path fill="#C0C0C0" stroke="none" d="M 295 568 C 295 558.6111584 356.1131248 551 431.5 551 C 506.8868752 551 568 558.6111584 568 568 C 568 577.3888416 506.8868752 585 431.5 585 C 356.1131248 585 295 577.3888416 295 568 Z" opacity="0.2"/></g><g transform="translate(-6,-134) scale(1,1)"><path fill="#ffffff" stroke="none" d="M 288 561 C 288 551.6111584 349.1131248 544 424.5 544 C 499.8868752 544 561 551.6111584 561 561 C 561 570.3888416 499.8868752 578 424.5 578 C 349.1131248 578 288 570.3888416 288 561 Z"/></g><g transform="translate(-6,-134) scale(1,1)"><path fill="none" stroke="#000000" d="M 288 561 C 288 551.6111584 349.1131248 544 424.5 544 C 499.8868752 544 561 551.6111584 561 561 C 561 570.3888416 499.8868752 578 424.5 578 C 349.1131248 578 288 570.3888416 288 561 Z" stroke-miterlimit="10"/></g><g transform="translate(-6,-134) scale(1,1)"><g><path fill="none" stroke="none"/><text fill="#000000" stroke="none" font-family="Arial" font-size="13px" font-style="normal" font-weight="bold" text-decoration="none" x="336.346923828125" y="568">CU03 - Recuperar Contraseña</text></g></g><g transform="translate(-6,-134) scale(1,1)"><path fill="none" stroke="#000000" d="M 123 580 L 287 570" stroke-miterlimit="10"/></g><g transform="translate(-6,-134) scale(1,1)"><path fill="none" stroke="#000000" d="M 168 310 L 383 331" stroke-miterlimit="10"/></g><g transform="translate(-6,-134) scale(1,1)"><path fill="none" stroke="#000000" d="M 144 344 L 401 543" stroke-miterlimit="10"/></g><g transform="translate(-6,-134) scale(1,1)"><path fill="none" stroke="#000000" d="M 727 249 L 493 210" stroke-miterlimit="10"/></g><g transform="translate(-6,-134) scale(1,1)"><path fill="none" stroke="#000000" d="M 727 266 L 544 319" stroke-miterlimit="10"/></g><g transform="translate(-6,-134) scale(1,1)"><path fill="none" stroke="#000000" d="M 727 287 L 444 543" stroke-miterlimit="10"/></g><g transform="translate(-6,-134) scale(1,1)"><path fill="#C0C0C0" stroke="none" d="M 327 664 C 327 654.6111584 375.5770992 647 435.5 647 C 495.4229008 647 544 654.6111584 544 664 C 544 673.3888416 495.4229008 681 435.5 681 C 375.5770992 681 327 673.3888416 327 664 Z" opacity="0.2"/></g><g transform="translate(-6,-134) scale(1,1)"><path fill="#ffffff" stroke="none" d="M 320 657 C 320 647.6111584 368.5770992 640 428.5 640 C 488.4229008 640 537 647.6111584 537 657 C 537 666.3888416 488.4229008 674 428.5 674 C 368.5770992 674 320 666.3888416 320 657 Z"/></g><g transform="translate(-6,-134) scale(1,1)"><path fill="none" stroke="#000000" d="M 320 657 C 320 647.6111584 368.5770992 640 428.5 640 C 488.4229008 640 537 647.6111584 537 657 C 537 666.3888416 488.4229008 674 428.5 674 C 368.5770992 674 320 666.3888416 320 657 Z" stroke-miterlimit="10"/></g><g transform="translate(-6,-134) scale(1,1)"><g><path fill="none" stroke="none"/><text fill="#000000" stroke="none" font-family="Arial" font-size="13px" font-style="normal" font-weight="bold" text-decoration="none" x="360.583251953125" y="664">CU16 - Solicitar Código</text></g></g><g transform="translate(-6,-134) scale(1,1)"><path fill="none" stroke="#000000" d="M 425 579 L 427 639" stroke-miterlimit="10" stroke-dasharray="3"/></g><g transform="translate(-6,-134) scale(1,1)"><path fill="none" stroke="#000000" d="M 422.45425113032024 628.9832057416654 L 427 639 L 430.86861329449727 628.7027270028594" stroke-miterlimit="10"/></g><g transform="translate(-6,-134) scale(1,1)"><g><path fill="none" stroke="none"/><text fill="#000000" stroke="none" font-family="Arial" font-size="13px" font-style="normal" font-weight="normal" text-decoration="none" x="426.5" y="621.5">«include»</text></g></g><g transform="translate(-6,-134) scale(1,1)"><path fill="#C0C0C0" stroke="none" d="M 327 456 C 327 446.6111584 391.6948464 439 471.5 439 C 551.3051536 439 616 446.6111584 616 456 C 616 465.3888416 551.3051536 473 471.5 473 C 391.6948464 473 327 465.3888416 327 456 Z" opacity="0.2"/></g><g transform="translate(-6,-134) scale(1,1)"><path fill="#ffffff" stroke="none" d="M 320 449 C 320 439.6111584 384.6948464 432 464.5 432 C 544.3051536 432 609 439.6111584 609 449 C 609 458.3888416 544.3051536 466 464.5 466 C 384.6948464 466 320 458.3888416 320 449 Z"/></g><g transform="translate(-6,-134) scale(1,1)"><path fill="none" stroke="#000000" d="M 320 449 C 320 439.6111584 384.6948464 432 464.5 432 C 544.3051536 432 609 439.6111584 609 449 C 609 458.3888416 544.3051536 466 464.5 466 C 384.6948464 466 320 458.3888416 320 449 Z" stroke-miterlimit="10"/></g><g transform="translate(-6,-134) scale(1,1)"><g><path fill="none" stroke="none"/><text fill="#000000" stroke="none" font-family="Arial" font-size="13px" font-style="normal" font-weight="bold" text-decoration="none" x="372.02099609375" y="456">CU17 - Llenar Formato Registro</text></g></g><g transform="translate(-6,-134) scale(1,1)"><path fill="none" stroke="#000000" d="M 470 361 L 465 431" stroke-miterlimit="10" stroke-dasharray="3"/></g><g transform="translate(-6,-134) scale(1,1)"><path fill="none" stroke="#000000" d="M 461.5252404957619 420.5632358277239 L 465 431 L 469.9228807114221 421.16306727169956" stroke-miterlimit="10"/></g><g transform="translate(-6,-134) scale(1,1)"><g><path fill="none" stroke="none"/><text fill="#000000" stroke="none" font-family="Arial" font-size="13px" font-style="normal" font-weight="normal" text-decoration="none" x="468.5" y="390.5">«include»</text></g></g><g transform="translate(-6,-134) scale(1,1)"><path fill="#C0C0C0" stroke="none" d="M 367 280 C 367 270.6111584 414.2339536 263 472.5 263 C 530.7660464 263 578 270.6111584 578 280 C 578 289.3888416 530.7660464 297 472.5 297 C 414.2339536 297 367 289.3888416 367 280 Z" opacity="0.2"/></g><g transform="translate(-6,-134) scale(1,1)"><path fill="#ffffff" stroke="none" d="M 360 273 C 360 263.6111584 407.2339536 256 465.5 256 C 523.7660464 256 571 263.6111584 571 273 C 571 282.3888416 523.7660464 290 465.5 290 C 407.2339536 290 360 282.3888416 360 273 Z"/></g><g transform="translate(-6,-134) scale(1,1)"><path fill="none" stroke="#000000" d="M 360 273 C 360 263.6111584 407.2339536 256 465.5 256 C 523.7660464 256 571 263.6111584 571 273 C 571 282.3888416 523.7660464 290 465.5 290 C 407.2339536 290 360 282.3888416 360 273 Z" stroke-miterlimit="10"/></g><g transform="translate(-6,-134) scale(1,1)"><g><path fill="none" stroke="none"/><text fill="#000000" stroke="none" font-family="Arial" font-size="13px" font-style="normal" font-weight="bold" text-decoration="none" x="397.9482421875" y="280">CU18 - Recordar Clave</text></g></g><g transform="translate(-6,-134) scale(1,1)"><path fill="none" stroke="#000000" d="M 410 211 L 449 255" stroke-miterlimit="10" stroke-dasharray="3"/></g><g transform="translate(-6,-134) scale(1,1)"><path fill="none" stroke="#000000" d="M 439.10884167304806 250.1869981351376 L 449 255 L 445.4092011297302 244.60258861671477" stroke-miterlimit="10"/></g><g transform="translate(-6,-134) scale(1,1)"><g><path fill="none" stroke="none"/><text fill="#000000" stroke="none" font-family="Arial" font-size="13px" font-style="normal" font-weight="normal" text-decoration="none" x="434.5" y="233.5">«include»</text></g></g><g transform="translate(-6,-134) scale(1,1)"><path fill="none" stroke="#000000" d="M 727 257 L 572 267" stroke-miterlimit="10"/></g><g transform="translate(-6,-134) scale(1,1)"><path fill="none" stroke="#000000" d="M 168 297 L 359 282" stroke-miterlimit="10"/></g><g transform="translate(-6,-134) scale(1,1)"><path fill="none" stroke="#000000" d="M 123 543 L 442 291" stroke-miterlimit="10"/></g><g transform="translate(-6,-134) scale(1,1)"><path fill="none" stroke="#000000" d="M 123 594 L 341 639" stroke-miterlimit="10"/></g><g transform="translate(-6,-134) scale(1,1)"><path fill="none" stroke="#000000" d="M 130 344 L 411 639" stroke-miterlimit="10"/></g><g transform="translate(-6,-134) scale(1,1)"><path fill="none" stroke="#000000" d="M 443 639 L 729 296" stroke-miterlimit="10"/></g><g transform="translate(-6,-134) scale(1,1)"><path fill="none" stroke="#000000" d="M 727 278 L 492 431" stroke-miterlimit="10"/></g><g transform="translate(-6,-134) scale(1,1)"><path fill="none" stroke="#000000" d="M 168 333 L 418 431" stroke-miterlimit="10"/></g><g transform="translate(-6,-134) scale(1,1)"><path fill="none" stroke="#000000" d="M 123 566 L 411 467" stroke-miterlimit="10"/></g></g></svg>