<svg version="1.1" xmlns="http://www.w3.org/2000/svg" xmlns:xlink="http://www.w3.org/1999/xlink" width="1386.58447265625" height="836"><defs/><g><g transform="translate(-6,-70) scale(1,1)"><path fill="none" stroke="#000000" d="M 208 80 L 1208 80 L 1208 896 L 208 896 L 208 80" stroke-miterlimit="10"/></g><g transform="translate(-6,-70) scale(1,1)"><path fill="#ffffff" stroke="none" d="M 208 80 L 208 102 L 480.51513671875 102 L 491.51513671875 91 L 491.51513671875 80 L 208 80"/></g><g transform="translate(-6,-70) scale(1,1)"><path fill="none" stroke="#000000" d="M 208 80 L 208 102 L 480.51513671875 102 L 491.51513671875 91 L 491.51513671875 80 L 208 80 L 208 80" stroke-miterlimit="10"/></g><g transform="translate(-6,-70) scale(1,1)"><g><path fill="none" stroke="none"/><text fill="#000000" stroke="none" font-family="Arial" font-size="13px" font-style="normal" font-weight="normal" text-decoration="none" x="271.03173828125" y="97.5">Modulo Administración de Usuarios</text></g></g><g transform="translate(-6,-70) scale(1,1)"><g><path fill="none" stroke="none"/><text fill="#000000" stroke="none" font-family="Arial" font-size="13px" font-style="normal" font-weight="bold" text-decoration="none" x="213" y="97.5">use case</text></g></g><g transform="translate(-6,-70) scale(1,1)"><path fill="#ffffff" stroke="none" d="M 56.24162571022727 393.68 C 56.24162571022727 388.886167936 60.127468035172726 385 64.9208984375 385 C 69.71432883982727 385 73.60017116477273 388.886167936 73.60017116477273 393.68 C 73.60017116477273 398.473832064 69.71432883982727 402.36 64.9208984375 402.36 C 60.127468035172726 402.36 56.24162571022727 398.473832064 56.24162571022727 393.68 Z"/></g><g transform="translate(-6,-70) scale(1,1)"><path fill="none" stroke="#000000" d="M 56.24162571022727 393.68 C 56.24162571022727 388.886167936 60.127468035172726 385 64.9208984375 385 C 69.71432883982727 385 73.60017116477273 388.886167936 73.60017116477273 393.68 C 73.60017116477273 398.473832064 69.71432883982727 402.36 64.9208984375 402.36 C 60.127468035172726 402.36 56.24162571022727 398.473832064 56.24162571022727 393.68 Z" stroke-miterlimit="10"/></g><g transform="translate(-6,-70) scale(1,1)"><path fill="none" stroke="#000000" d="M 64.9208984375 402.36 L 64.9208984375 419.64" stroke-miterlimit="10"/></g><g transform="translate(-6,-70) scale(1,1)"><path fill="none" stroke="#000000" d="M 55.73108025568182 408.84 L 74.11071661931818 408.84" stroke-miterlimit="10"/></g><g transform="translate(-6,-70) scale(1,1)"><path fill="none" stroke="#000000" d="M 64.9208984375 419.64 L 52.157262073863635 437" stroke-miterlimit="10"/></g><g transform="translate(-6,-70) scale(1,1)"><path fill="none" stroke="#000000" d="M 64.9208984375 419.64 L 77.68453480113637 437" stroke-miterlimit="10"/></g><g transform="translate(-6,-70) scale(1,1)"><g><path fill="none" stroke="none"/><text fill="#000000" stroke="none" font-family="Arial" font-size="13px" font-style="normal" font-weight="bold" text-decoration="none" x="24.82275390625" y="457.5">Administrador</text></g></g><g transform="translate(-6,-70) scale(1,1)"><path fill="#ffffff" stroke="none" d="M 1298.6129636008523 313.68 C 1298.6129636008523 308.886167936 1302.4988059257978 305 1307.292236328125 305 C 1312.0856667304522 305 1315.9715090553977 308.886167936 1315.9715090553977 313.68 C 1315.9715090553977 318.473832064 1312.0856667304522 322.36 1307.292236328125 322.36 C 1302.4988059257978 322.36 1298.6129636008523 318.473832064 1298.6129636008523 313.68 Z"/></g><g transform="translate(-6,-70) scale(1,1)"><path fill="none" stroke="#000000" d="M 1298.6129636008523 313.68 C 1298.6129636008523 308.886167936 1302.4988059257978 305 1307.292236328125 305 C 1312.0856667304522 305 1315.9715090553977 308.886167936 1315.9715090553977 313.68 C 1315.9715090553977 318.473832064 1312.0856667304522 322.36 1307.292236328125 322.36 C 1302.4988059257978 322.36 1298.6129636008523 318.473832064 1298.6129636008523 313.68 Z" stroke-miterlimit="10"/></g><g transform="translate(-6,-70) scale(1,1)"><path fill="none" stroke="#000000" d="M 1307.292236328125 322.36 L 1307.292236328125 339.64" stroke-miterlimit="10"/></g><g transform="translate(-6,-70) scale(1,1)"><path fill="none" stroke="#000000" d="M 1298.1024181463067 328.84 L 1316.4820545099433 328.84" stroke-miterlimit="10"/></g><g transform="translate(-6,-70) scale(1,1)"><path fill="none" stroke="#000000" d="M 1307.292236328125 339.64 L 1294.5285999644886 357" stroke-miterlimit="10"/></g><g transform="translate(-6,-70) scale(1,1)"><path fill="none" stroke="#000000" d="M 1307.292236328125 339.64 L 1320.0558726917614 357" stroke-miterlimit="10"/></g><g transform="translate(-6,-70) scale(1,1)"><g><path fill="none" stroke="none"/><text fill="#000000" stroke="none" font-family="Arial" font-size="13px" font-style="normal" font-weight="bold" text-decoration="none" x="1242.628662109375" y="377.5">Administrador Porteria</text></g></g><g transform="translate(-6,-70) scale(1,1)"><path fill="#C0C0C0" stroke="none" d="M 567 171 C 567 155.5360256 622.0689696 143 690 143 C 757.9310304 143 813 155.5360256 813 171 C 813 186.4639744 757.9310304 199 690 199 C 622.0689696 199 567 186.4639744 567 171 Z" opacity="0.2"/></g><g transform="translate(-6,-70) scale(1,1)"><path fill="#ffffff" stroke="none" d="M 560 164 C 560 148.5360256 615.0689696 136 683 136 C 750.9310304 136 806 148.5360256 806 164 C 806 179.4639744 750.9310304 192 683 192 C 615.0689696 192 560 179.4639744 560 164 Z"/></g><g transform="translate(-6,-70) scale(1,1)"><path fill="none" stroke="#000000" d="M 560 164 C 560 148.5360256 615.0689696 136 683 136 C 750.9310304 136 806 148.5360256 806 164 C 806 179.4639744 750.9310304 192 683 192 C 615.0689696 192 560 179.4639744 560 164 Z" stroke-miterlimit="10"/></g><g transform="translate(-6,-70) scale(1,1)"><g><path fill="none" stroke="none"/><text fill="#000000" stroke="none" font-family="Arial" font-size="13px" font-style="normal" font-weight="bold" text-decoration="none" x="604.971435546875" y="171">CU14 - Gestionar Usuarios</text></g></g><g transform="translate(-6,-70) scale(1,1)"><path fill="none" stroke="#000000" d="M 115 402 L 614 193" stroke-miterlimit="10"/></g><g transform="translate(-6,-70) scale(1,1)"><path fill="#C0C0C0" stroke="none" d="M 575 547 C 575 527.1177472 636.1131248 511 711.5 511 C 786.8868752 511 848 527.1177472 848 547 C 848 566.8822528 786.8868752 583 711.5 583 C 636.1131248 583 575 566.8822528 575 547 Z" opacity="0.2"/></g><g transform="translate(-6,-70) scale(1,1)"><path fill="#ffffff" stroke="none" d="M 568 540 C 568 520.1177472 629.1131248 504 704.5 504 C 779.8868752 504 841 520.1177472 841 540 C 841 559.8822528 779.8868752 576 704.5 576 C 629.1131248 576 568 559.8822528 568 540 Z"/></g><g transform="translate(-6,-70) scale(1,1)"><path fill="none" stroke="#000000" d="M 568 540 C 568 520.1177472 629.1131248 504 704.5 504 C 779.8868752 504 841 520.1177472 841 540 C 841 559.8822528 779.8868752 576 704.5 576 C 629.1131248 576 568 559.8822528 568 540 Z" stroke-miterlimit="10"/></g><g transform="translate(-6,-70) scale(1,1)"><g><path fill="none" stroke="none"/><text fill="#000000" stroke="none" font-family="Arial" font-size="13px" font-style="normal" font-weight="bold" text-decoration="none" x="616.715087890625" y="547">CU15 - Envío mensaje masivo</text></g></g><g transform="translate(-6,-70) scale(1,1)"><path fill="none" stroke="#000000" d="M 1231 368 L 817 503" stroke-miterlimit="10"/></g><g transform="translate(-6,-70) scale(1,1)"><path fill="none" stroke="#000000" d="M 115 432 L 567 515" stroke-miterlimit="10"/></g><g transform="translate(-6,-70) scale(1,1)"><path fill="#C0C0C0" stroke="none" d="M 287 184 C 287 174.6111584 328.1897984 167 379 167 C 429.8102016 167 471 174.6111584 471 184 C 471 193.3888416 429.8102016 201 379 201 C 328.1897984 201 287 193.3888416 287 184 Z" opacity="0.2"/></g><g transform="translate(-6,-70) scale(1,1)"><path fill="#ffffff" stroke="none" d="M 280 177 C 280 167.6111584 321.1897984 160 372 160 C 422.8102016 160 464 167.6111584 464 177 C 464 186.3888416 422.8102016 194 372 194 C 321.1897984 194 280 186.3888416 280 177 Z"/></g><g transform="translate(-6,-70) scale(1,1)"><path fill="none" stroke="#000000" d="M 280 177 C 280 167.6111584 321.1897984 160 372 160 C 422.8102016 160 464 167.6111584 464 177 C 464 186.3888416 422.8102016 194 372 194 C 321.1897984 194 280 186.3888416 280 177 Z" stroke-miterlimit="10"/></g><g transform="translate(-6,-70) scale(1,1)"><g><path fill="none" stroke="none"/><text fill="#000000" stroke="none" font-family="Arial" font-size="13px" font-style="normal" font-weight="bold" text-decoration="none" x="313.484130859375" y="184">CU41 - Cambiar Rol</text></g></g><g transform="translate(-6,-70) scale(1,1)"><path fill="none" stroke="#000000" d="M 559 169 L 465 173" stroke-miterlimit="10" stroke-dasharray="3"/></g><g transform="translate(-6,-70) scale(1,1)"><path fill="none" stroke="#000000" d="M 474.9745197259431 168.36222507696067 L 465 173 L 475.33245263499134 176.77364843959532" stroke-miterlimit="10"/></g><g transform="translate(-6,-70) scale(1,1)"><g><path fill="none" stroke="none"/><text fill="#000000" stroke="none" font-family="Arial" font-size="13px" font-style="normal" font-weight="normal" text-decoration="none" x="485.5" y="206.5">«include»</text></g></g><g transform="translate(-6,-70) scale(1,1)"><path fill="#C0C0C0" stroke="none" d="M 303 360 C 303 350.6111584 350.4578112 343 409 343 C 467.5421888 343 515 350.6111584 515 360 C 515 369.3888416 467.5421888 377 409 377 C 350.4578112 377 303 369.3888416 303 360 Z" opacity="0.2"/></g><g transform="translate(-6,-70) scale(1,1)"><path fill="#ffffff" stroke="none" d="M 296 353 C 296 343.6111584 343.4578112 336 402 336 C 460.5421888 336 508 343.6111584 508 353 C 508 362.3888416 460.5421888 370 402 370 C 343.4578112 370 296 362.3888416 296 353 Z"/></g><g transform="translate(-6,-70) scale(1,1)"><path fill="none" stroke="#000000" d="M 296 353 C 296 343.6111584 343.4578112 336 402 336 C 460.5421888 336 508 343.6111584 508 353 C 508 362.3888416 460.5421888 370 402 370 C 343.4578112 370 296 362.3888416 296 353 Z" stroke-miterlimit="10"/></g><g transform="translate(-6,-70) scale(1,1)"><g><path fill="none" stroke="none"/><text fill="#000000" stroke="none" font-family="Arial" font-size="13px" font-style="normal" font-weight="bold" text-decoration="none" x="335.171875" y="360">CU42 - Buscar Usuario</text></g></g><g transform="translate(-6,-70) scale(1,1)"><path fill="none" stroke="#000000" d="M 640 193 L 429 335" stroke-miterlimit="10" stroke-dasharray="3"/></g><g transform="translate(-6,-70) scale(1,1)"><path fill="none" stroke="#000000" d="M 435.0809103018574 325.8336195856399 L 429 335 L 439.7814626601601 332.81824316030094" stroke-miterlimit="10"/></g><g transform="translate(-6,-70) scale(1,1)"><g><path fill="none" stroke="none"/><text fill="#000000" stroke="none" font-family="Arial" font-size="13px" font-style="normal" font-weight="normal" text-decoration="none" x="522.5" y="294.5">«include»</text></g></g><g transform="translate(-6,-70) scale(1,1)"><path fill="#C0C0C0" stroke="none" d="M 455 416 C 455 406.6111584 504.6963872 399 566 399 C 627.3036128 399 677 406.6111584 677 416 C 677 425.3888416 627.3036128 433 566 433 C 504.6963872 433 455 425.3888416 455 416 Z" opacity="0.2"/></g><g transform="translate(-6,-70) scale(1,1)"><path fill="#ffffff" stroke="none" d="M 448 409 C 448 399.6111584 497.6963872 392 559 392 C 620.3036128 392 670 399.6111584 670 409 C 670 418.3888416 620.3036128 426 559 426 C 497.6963872 426 448 418.3888416 448 409 Z"/></g><g transform="translate(-6,-70) scale(1,1)"><path fill="none" stroke="#000000" d="M 448 409 C 448 399.6111584 497.6963872 392 559 392 C 620.3036128 392 670 399.6111584 670 409 C 670 418.3888416 620.3036128 426 559 426 C 497.6963872 426 448 418.3888416 448 409 Z" stroke-miterlimit="10"/></g><g transform="translate(-6,-70) scale(1,1)"><g><path fill="none" stroke="none"/><text fill="#000000" stroke="none" font-family="Arial" font-size="13px" font-style="normal" font-weight="bold" text-decoration="none" x="488.925048828125" y="416">CU43 - Eliminar Usuario</text></g></g><g transform="translate(-6,-70) scale(1,1)"><path fill="none" stroke="#000000" d="M 668 193 L 568 391" stroke-miterlimit="10" stroke-dasharray="3"/></g><g transform="translate(-6,-70) scale(1,1)"><path fill="none" stroke="#000000" d="M 568.8240157733425 380.03090714756763 L 568 391 L 576.338987080555 383.82634720171535" stroke-miterlimit="10"/></g><g transform="translate(-6,-70) scale(1,1)"><g><path fill="none" stroke="none"/><text fill="#000000" stroke="none" font-family="Arial" font-size="13px" font-style="normal" font-weight="normal" text-decoration="none" x="616.5" y="311.5">«include»</text></g></g><g transform="translate(-6,-70) scale(1,1)"><path fill="#C0C0C0" stroke="none" d="M 695 392 C 695 382.6111584 740.6669504 375 797 375 C 853.3330496 375 899 382.6111584 899 392 C 899 401.3888416 853.3330496 409 797 409 C 740.6669504 409 695 401.3888416 695 392 Z" opacity="0.2"/></g><g transform="translate(-6,-70) scale(1,1)"><path fill="#ffffff" stroke="none" d="M 688 385 C 688 375.6111584 733.6669504 368 790 368 C 846.3330496 368 892 375.6111584 892 385 C 892 394.3888416 846.3330496 402 790 402 C 733.6669504 402 688 394.3888416 688 385 Z"/></g><g transform="translate(-6,-70) scale(1,1)"><path fill="none" stroke="#000000" d="M 688 385 C 688 375.6111584 733.6669504 368 790 368 C 846.3330496 368 892 375.6111584 892 385 C 892 394.3888416 846.3330496 402 790 402 C 733.6669504 402 688 394.3888416 688 385 Z" stroke-miterlimit="10"/></g><g transform="translate(-6,-70) scale(1,1)"><g><path fill="none" stroke="none"/><text fill="#000000" stroke="none" font-family="Arial" font-size="13px" font-style="normal" font-weight="bold" text-decoration="none" x="724.619140625" y="392">CU44 - Cambiar Clave</text></g></g><g transform="translate(-6,-70) scale(1,1)"><path fill="none" stroke="#000000" d="M 697 193 L 781 367" stroke-miterlimit="10" stroke-dasharray="3"/></g><g transform="translate(-6,-70) scale(1,1)"><path fill="none" stroke="#000000" d="M 772.790898495816 359.6780704391531 L 781 367 L 780.3726747027879 356.0179026150977" stroke-miterlimit="10"/></g><g transform="translate(-6,-70) scale(1,1)"><g><path fill="none" stroke="none"/><text fill="#000000" stroke="none" font-family="Arial" font-size="13px" font-style="normal" font-weight="normal" text-decoration="none" x="738.5" y="272.5">«include»</text></g></g><g transform="translate(-6,-70) scale(1,1)"><path fill="#C0C0C0" stroke="none" d="M 943 208 C 943 198.6111584 999.6359728 191 1069.5 191 C 1139.3640272 191 1196 198.6111584 1196 208 C 1196 217.3888416 1139.3640272 225 1069.5 225 C 999.6359728 225 943 217.3888416 943 208 Z" opacity="0.2"/></g><g transform="translate(-6,-70) scale(1,1)"><path fill="#ffffff" stroke="none" d="M 936 201 C 936 191.6111584 992.6359728 184 1062.5 184 C 1132.3640272 184 1189 191.6111584 1189 201 C 1189 210.3888416 1132.3640272 218 1062.5 218 C 992.6359728 218 936 210.3888416 936 201 Z"/></g><g transform="translate(-6,-70) scale(1,1)"><path fill="none" stroke="#000000" d="M 936 201 C 936 191.6111584 992.6359728 184 1062.5 184 C 1132.3640272 184 1189 191.6111584 1189 201 C 1189 210.3888416 1132.3640272 218 1062.5 218 C 992.6359728 218 936 210.3888416 936 201 Z" stroke-miterlimit="10"/></g><g transform="translate(-6,-70) scale(1,1)"><g><path fill="none" stroke="none"/><text fill="#000000" stroke="none" font-family="Arial" font-size="13px" font-style="normal" font-weight="bold" text-decoration="none" x="981.938720703125" y="208">CU45 - Seleccionar Usuario</text></g></g><g transform="translate(-6,-70) scale(1,1)"><path fill="none" stroke="#000000" d="M 807 176 L 935 189" stroke-miterlimit="10" stroke-dasharray="3"/></g><g transform="translate(-6,-70) scale(1,1)"><path fill="none" stroke="#000000" d="M 924.463995720507 192.16110958723425 L 935 189 L 925.3146779021529 183.78516195256714" stroke-miterlimit="10"/></g><g transform="translate(-6,-70) scale(1,1)"><g><path fill="none" stroke="none"/><text fill="#000000" stroke="none" font-family="Arial" font-size="13px" font-style="normal" font-weight="normal" text-decoration="none" x="846.5" y="158.5">«include»</text></g></g><g transform="translate(-6,-70) scale(1,1)"><path fill="#C0C0C0" stroke="none" d="M 239 656 C 239 646.6111584 306.3811376 639 389.5 639 C 472.6188624 639 540 646.6111584 540 656 C 540 665.3888416 472.6188624 673 389.5 673 C 306.3811376 673 239 665.3888416 239 656 Z" opacity="0.2"/></g><g transform="translate(-6,-70) scale(1,1)"><path fill="#ffffff" stroke="none" d="M 232 649 C 232 639.6111584 299.3811376 632 382.5 632 C 465.6188624 632 533 639.6111584 533 649 C 533 658.3888416 465.6188624 666 382.5 666 C 299.3811376 666 232 658.3888416 232 649 Z"/></g><g transform="translate(-6,-70) scale(1,1)"><path fill="none" stroke="#000000" d="M 232 649 C 232 639.6111584 299.3811376 632 382.5 632 C 465.6188624 632 533 639.6111584 533 649 C 533 658.3888416 465.6188624 666 382.5 666 C 299.3811376 666 232 658.3888416 232 649 Z" stroke-miterlimit="10"/></g><g transform="translate(-6,-70) scale(1,1)"><g><path fill="none" stroke="none"/><text fill="#000000" stroke="none" font-family="Arial" font-size="13px" font-style="normal" font-weight="bold" text-decoration="none" x="286.40283203125" y="656">CU46 - Seleccionar Destinatarios</text></g></g><g transform="translate(-6,-70) scale(1,1)"><path fill="none" stroke="#000000" d="M 595 577 L 435 631" stroke-miterlimit="10" stroke-dasharray="3"/></g><g transform="translate(-6,-70) scale(1,1)"><path fill="none" stroke="#000000" d="M 443.28294208087766 623.7617080409238 L 435 631 L 445.9751698420348 631.7386791850932" stroke-miterlimit="10"/></g><g transform="translate(-6,-70) scale(1,1)"><g><path fill="none" stroke="none"/><text fill="#000000" stroke="none" font-family="Arial" font-size="13px" font-style="normal" font-weight="normal" text-decoration="none" x="496.5" y="638.5">«include»</text></g></g><g transform="translate(-6,-70) scale(1,1)"><path fill="#C0C0C0" stroke="none" d="M 391 744 C 391 734.6111584 442.93496319999997 727 507 727 C 571.0650368 727 623 734.6111584 623 744 C 623 753.3888416 571.0650368 761 507 761 C 442.93496319999997 761 391 753.3888416 391 744 Z" opacity="0.2"/></g><g transform="translate(-6,-70) scale(1,1)"><path fill="#ffffff" stroke="none" d="M 384 737 C 384 727.6111584 435.93496319999997 720 500 720 C 564.0650368 720 616 727.6111584 616 737 C 616 746.3888416 564.0650368 754 500 754 C 435.93496319999997 754 384 746.3888416 384 737 Z"/></g><g transform="translate(-6,-70) scale(1,1)"><path fill="none" stroke="#000000" d="M 384 737 C 384 727.6111584 435.93496319999997 720 500 720 C 564.0650368 720 616 727.6111584 616 737 C 616 746.3888416 564.0650368 754 500 754 C 435.93496319999997 754 384 746.3888416 384 737 Z" stroke-miterlimit="10"/></g><g transform="translate(-6,-70) scale(1,1)"><g><path fill="none" stroke="none"/><text fill="#000000" stroke="none" font-family="Arial" font-size="13px" font-style="normal" font-weight="bold" text-decoration="none" x="424.8564453125" y="744">CU47 - Redactar Mensaje</text></g></g><g transform="translate(-6,-70) scale(1,1)"><path fill="none" stroke="#000000" d="M 666 577 L 519 719" stroke-miterlimit="10" stroke-dasharray="3"/></g><g transform="translate(-6,-70) scale(1,1)"><path fill="none" stroke="#000000" d="M 523.3846864044997 708.9116639065604 L 519 719 L 529.2339723525583 714.966910627438" stroke-miterlimit="10"/></g><g transform="translate(-6,-70) scale(1,1)"><g><path fill="none" stroke="none"/><text fill="#000000" stroke="none" font-family="Arial" font-size="13px" font-style="normal" font-weight="normal" text-decoration="none" x="584.5" y="675.5">«include»</text></g></g><g transform="translate(-6,-70) scale(1,1)"><path fill="#C0C0C0" stroke="none" d="M 615 776 C 615 766.6111584 665.36796 759 727.5 759 C 789.63204 759 840 766.6111584 840 776 C 840 785.3888416 789.63204 793 727.5 793 C 665.36796 793 615 785.3888416 615 776 Z" opacity="0.2"/></g><g transform="translate(-6,-70) scale(1,1)"><path fill="#ffffff" stroke="none" d="M 608 769 C 608 759.6111584 658.36796 752 720.5 752 C 782.63204 752 833 759.6111584 833 769 C 833 778.3888416 782.63204 786 720.5 786 C 658.36796 786 608 778.3888416 608 769 Z"/></g><g transform="translate(-6,-70) scale(1,1)"><path fill="none" stroke="#000000" d="M 608 769 C 608 759.6111584 658.36796 752 720.5 752 C 782.63204 752 833 759.6111584 833 769 C 833 778.3888416 782.63204 786 720.5 786 C 658.36796 786 608 778.3888416 608 769 Z" stroke-miterlimit="10"/></g><g transform="translate(-6,-70) scale(1,1)"><g><path fill="none" stroke="none"/><text fill="#000000" stroke="none" font-family="Arial" font-size="13px" font-style="normal" font-weight="bold" text-decoration="none" x="650.41552734375" y="776">CU48 - Adjuntar Archivo</text></g></g><g transform="translate(-6,-70) scale(1,1)"><path fill="none" stroke="#000000" d="M 707 577 L 719 751" stroke-miterlimit="10" stroke-dasharray="3"/></g><g transform="translate(-6,-70) scale(1,1)"><path fill="none" stroke="#000000" d="M 714.1012441319518 741.1510309704383 L 719 751 L 722.5003292948251 740.5717837178264" stroke-miterlimit="10"/></g><g transform="translate(-6,-70) scale(1,1)"><g><path fill="none" stroke="none"/><text fill="#000000" stroke="none" font-family="Arial" font-size="13px" font-style="normal" font-weight="normal" text-decoration="none" x="715.5" y="667.5">«extend»</text></g></g><g transform="translate(-6,-70) scale(1,1)"><path fill="#C0C0C0" stroke="none" d="M 791 664 C 791 654.6111584 846.9644 647 916 647 C 985.0356 647 1041 654.6111584 1041 664 C 1041 673.3888416 985.0356 681 916 681 C 846.9644 681 791 673.3888416 791 664 Z" opacity="0.2"/></g><g transform="translate(-6,-70) scale(1,1)"><path fill="#ffffff" stroke="none" d="M 784 657 C 784 647.6111584 839.9644 640 909 640 C 978.0356 640 1034 647.6111584 1034 657 C 1034 666.3888416 978.0356 674 909 674 C 839.9644 674 784 666.3888416 784 657 Z"/></g><g transform="translate(-6,-70) scale(1,1)"><path fill="none" stroke="#000000" d="M 784 657 C 784 647.6111584 839.9644 640 909 640 C 978.0356 640 1034 647.6111584 1034 657 C 1034 666.3888416 978.0356 674 909 674 C 839.9644 674 784 666.3888416 784 657 Z" stroke-miterlimit="10"/></g><g transform="translate(-6,-70) scale(1,1)"><g><path fill="none" stroke="none"/><text fill="#000000" stroke="none" font-family="Arial" font-size="13px" font-style="normal" font-weight="bold" text-decoration="none" x="829.885986328125" y="664">CU49 - Buscar Destinatario</text></g></g><g transform="translate(-6,-70) scale(1,1)"><path fill="none" stroke="#000000" d="M 769 577 L 877 639" stroke-miterlimit="10" stroke-dasharray="3"/></g><g transform="translate(-6,-70) scale(1,1)"><path fill="none" stroke="#000000" d="M 866.0906065981064 637.5910515968565 L 877 639 L 870.282170917094 630.2896169766846" stroke-miterlimit="10"/></g><g transform="translate(-6,-70) scale(1,1)"><g><path fill="none" stroke="none"/><text fill="#000000" stroke="none" font-family="Arial" font-size="13px" font-style="normal" font-weight="normal" text-decoration="none" x="810.5" y="587.5">«extend»</text></g></g></g></svg>